<svg width="22" height="22" viewBox="0 0 22 22" fill="none" xmlns="http://www.w3.org/2000/svg">
<path d="M18.9062 3.95312H15.2969V2.57812C15.2969 2.48359 15.2195 2.40625 15.125 2.40625H13.9219C13.8273 2.40625 13.75 2.48359 13.75 2.57812V3.95312H8.25V2.57812C8.25 2.48359 8.17266 2.40625 8.07812 2.40625H6.875C6.78047 2.40625 6.70312 2.48359 6.70312 2.57812V3.95312H3.09375C2.71348 3.95312 2.40625 4.26035 2.40625 4.64062V18.9062C2.40625 19.2865 2.71348 19.5938 3.09375 19.5938H18.9062C19.2865 19.5938 19.5938 19.2865 19.5938 18.9062V4.64062C19.5938 4.26035 19.2865 3.95312 18.9062 3.95312ZM18.0469 18.0469H3.95312V9.88281H18.0469V18.0469ZM3.95312 8.42188V5.5H6.70312V6.53125C6.70312 6.62578 6.78047 6.70312 6.875 6.70312H8.07812C8.17266 6.70312 8.25 6.62578 8.25 6.53125V5.5H13.75V6.53125C13.75 6.62578 13.8273 6.70312 13.9219 6.70312H15.125C15.2195 6.70312 15.2969 6.62578 15.2969 6.53125V5.5H18.0469V8.42188H3.95312Z" fill="white"/>
</svg>
