<svg width="18" height="18" viewBox="0 0 18 18" fill="none" xmlns="http://www.w3.org/2000/svg">
<g clip-path="url(#clip0)">
<path fill-rule="evenodd" clip-rule="evenodd" d="M9.52736 12.6914C9.52736 13.4413 9.52736 14.1915 9.52736 14.9414C9.91162 15.0125 10.4041 15.5072 10.4766 15.8906C11.9647 15.8906 13.4533 15.8906 14.9414 15.8906C15.0786 15.2065 16.0728 14.6057 16.9102 14.9414C16.9453 14.9414 16.9805 14.9414 17.0156 14.9414C17.0156 14.9531 17.0156 14.9649 17.0156 14.9766C17.086 15 17.1563 15.0234 17.2266 15.0469C17.2266 15.0586 17.2266 15.0703 17.2266 15.0821C17.25 15.0821 17.2734 15.0821 17.2969 15.0821C17.3203 15.1172 17.3438 15.1524 17.3672 15.1875C17.3907 15.1875 17.4141 15.1875 17.4375 15.1875C17.4727 15.2344 17.5078 15.2813 17.543 15.3281C17.5781 15.3516 17.6133 15.375 17.6485 15.3985C17.6485 15.4219 17.6485 15.4453 17.6485 15.4688C17.6836 15.4922 17.7188 15.5156 17.7539 15.5391C17.7774 15.6094 17.8008 15.6797 17.8242 15.75C17.8359 15.75 17.8477 15.75 17.8594 15.75C17.8594 15.7735 17.8594 15.7969 17.8594 15.8203C17.8711 15.8203 17.8828 15.8203 17.8945 15.8203C17.9063 15.8906 17.918 15.961 17.9297 16.0313C17.9414 16.0313 17.9532 16.0313 17.9649 16.0313C17.9649 16.1016 17.9649 16.1719 17.9649 16.2422C17.9766 16.2422 17.9883 16.2422 18 16.2422C18.0318 16.3557 17.9825 16.5335 17.9649 16.5938C17.9649 16.6641 17.9649 16.7344 17.9649 16.8047C17.9532 16.8047 17.9414 16.8047 17.9297 16.8047C17.918 16.875 17.9063 16.9453 17.8945 17.0156C17.8828 17.0156 17.8711 17.0156 17.8594 17.0156C17.8477 17.0625 17.8359 17.1094 17.8242 17.1563C17.8125 17.1563 17.8008 17.1563 17.7891 17.1563C17.7774 17.2031 17.7656 17.25 17.7539 17.2969C17.7188 17.3203 17.6836 17.3438 17.6485 17.3672C17.6485 17.3907 17.6485 17.4141 17.6485 17.4375C17.6133 17.461 17.5781 17.4844 17.543 17.5078C17.5078 17.5547 17.4727 17.6016 17.4375 17.6485C17.4141 17.6485 17.3907 17.6485 17.3672 17.6485C17.3438 17.6836 17.3203 17.7188 17.2969 17.7539C17.2734 17.7539 17.25 17.7539 17.2266 17.7539C17.2266 17.7656 17.2266 17.7774 17.2266 17.7891C17.1563 17.8125 17.086 17.8359 17.0156 17.8594C17.0156 17.8711 17.0156 17.8828 17.0156 17.8946C16.9453 17.9063 16.875 17.918 16.8047 17.9297C16.8047 17.9414 16.8047 17.9532 16.8047 17.9649C16.7344 17.9649 16.6641 17.9649 16.5938 17.9649C16.5938 17.9766 16.5938 17.9883 16.5938 18C16.3958 18.0556 16.1507 17.9696 16.0313 17.9297C15.9844 17.9297 15.9375 17.9297 15.8906 17.9297C15.8906 17.918 15.8906 17.9063 15.8906 17.8946C15.8672 17.8946 15.8438 17.8946 15.8203 17.8946C15.8203 17.8828 15.8203 17.8711 15.8203 17.8594C15.7969 17.8594 15.7735 17.8594 15.75 17.8594C15.75 17.8477 15.75 17.8359 15.75 17.8242C15.7266 17.8242 15.7032 17.8242 15.6797 17.8242C15.6797 17.8125 15.6797 17.8008 15.6797 17.7891C15.6563 17.7891 15.6328 17.7891 15.6094 17.7891C15.6094 17.7774 15.6094 17.7656 15.6094 17.7539C15.5859 17.7539 15.5625 17.7539 15.5391 17.7539C15.3246 17.6119 15.0016 17.2376 14.9414 16.9453C13.4533 16.9453 11.9647 16.9453 10.4766 16.9453C10.4183 17.2351 10.0914 17.6142 9.87892 17.7539C9.85547 17.7539 9.83206 17.7539 9.80861 17.7539C9.80861 17.7656 9.80861 17.7774 9.80861 17.7891C9.78516 17.7891 9.76175 17.7891 9.7383 17.7891C9.7383 17.8008 9.7383 17.8125 9.7383 17.8242C9.71485 17.8242 9.69143 17.8242 9.66798 17.8242C9.66798 17.8359 9.66798 17.8477 9.66798 17.8594C9.64454 17.8594 9.62112 17.8594 9.59767 17.8594C9.59767 17.8711 9.59767 17.8828 9.59767 17.8946C9.57422 17.8946 9.55081 17.8946 9.52736 17.8946C9.52736 17.9063 9.52736 17.918 9.52736 17.9297C9.4805 17.9297 9.4336 17.9297 9.38673 17.9297C9.197 17.9915 9.01337 18.0326 8.78908 17.9649C8.68361 17.9532 8.57814 17.9414 8.47267 17.9297C8.47267 17.918 8.47267 17.9063 8.47267 17.8946C8.44922 17.8946 8.42581 17.8946 8.40236 17.8946C8.40236 17.8828 8.40236 17.8711 8.40236 17.8594C8.37891 17.8594 8.3555 17.8594 8.33205 17.8594C8.33205 17.8477 8.33205 17.8359 8.33205 17.8242C8.3086 17.8242 8.28518 17.8242 8.26173 17.8242C8.26173 17.8125 8.26173 17.8008 8.26173 17.7891C8.23829 17.7891 8.21487 17.7891 8.19142 17.7891C8.19142 17.7774 8.19142 17.7656 8.19142 17.7539C8.16797 17.7539 8.14456 17.7539 8.12111 17.7539C7.90669 17.6119 7.58353 17.2376 7.52345 16.9453C6.03532 16.9453 4.54674 16.9453 3.05861 16.9453C2.92139 17.6295 1.92721 18.2303 1.08986 17.8946C1.0547 17.8946 1.01955 17.8946 0.98439 17.8946C0.98439 17.8828 0.98439 17.8711 0.98439 17.8594C0.914077 17.8359 0.843765 17.8125 0.773452 17.7891C0.773452 17.7774 0.773452 17.7656 0.773452 17.7539C0.750003 17.7539 0.726589 17.7539 0.70314 17.7539C0.679691 17.7188 0.656277 17.6836 0.632827 17.6485C0.609378 17.6485 0.585964 17.6485 0.562515 17.6485C0.527359 17.6016 0.492202 17.5547 0.457046 17.5078C0.42189 17.4844 0.386734 17.461 0.351577 17.4375C0.351577 17.4141 0.351577 17.3907 0.351577 17.3672C0.316421 17.3438 0.281265 17.3203 0.246109 17.2969C0.222659 17.2266 0.199245 17.1563 0.175796 17.086C0.164089 17.086 0.152347 17.086 0.14064 17.086C0.14064 17.0625 0.14064 17.0391 0.14064 17.0156C0.128933 17.0156 0.117191 17.0156 0.105484 17.0156C0.0937765 16.9453 0.0820343 16.875 0.0703273 16.8047C0.0586203 16.8047 0.0468781 16.8047 0.0351711 16.8047C0.0351711 16.7344 0.0351711 16.6641 0.0351711 16.5938C0.023464 16.5938 0.0117218 16.5938 1.4808e-05 16.5938C-0.0318016 16.4802 0.0175226 16.3024 0.0351711 16.2422C0.0351711 16.1719 0.0351711 16.1016 0.0351711 16.0313C0.0468781 16.0313 0.0586203 16.0313 0.0703273 16.0313C0.0820343 15.961 0.0937765 15.8906 0.105484 15.8203C0.117191 15.8203 0.128933 15.8203 0.14064 15.8203C0.152347 15.7735 0.164089 15.7266 0.175796 15.6797C0.187503 15.6797 0.199245 15.6797 0.210952 15.6797C0.222659 15.6328 0.234402 15.5859 0.246109 15.5391C0.281265 15.5156 0.316421 15.4922 0.351577 15.4688C0.351577 15.4453 0.351577 15.4219 0.351577 15.3985C0.386734 15.375 0.42189 15.3516 0.457046 15.3281C0.492202 15.2813 0.527359 15.2344 0.562515 15.1875C0.585964 15.1875 0.609378 15.1875 0.632827 15.1875C0.656277 15.1524 0.679691 15.1172 0.70314 15.0821C0.726589 15.0821 0.750003 15.0821 0.773452 15.0821C0.773452 15.0703 0.773452 15.0586 0.773452 15.0469C0.843765 15.0234 0.914077 15 0.98439 14.9766C0.98439 14.9649 0.98439 14.9531 0.98439 14.9414C1.0547 14.9297 1.12501 14.918 1.19533 14.9063C1.19533 14.8946 1.19533 14.8828 1.19533 14.8711C1.26564 14.8711 1.33595 14.8711 1.40626 14.8711C1.40626 14.8594 1.40626 14.8477 1.40626 14.836C1.60419 14.7804 1.8493 14.8663 1.96876 14.9063C2.01563 14.9063 2.06253 14.9063 2.10939 14.9063C2.10939 14.918 2.10939 14.9297 2.10939 14.9414C2.13284 14.9414 2.15625 14.9414 2.1797 14.9414C2.1797 14.9531 2.1797 14.9649 2.1797 14.9766C2.20315 14.9766 2.22657 14.9766 2.25001 14.9766C2.25001 14.9883 2.25001 15 2.25001 15.0117C2.27346 15.0117 2.29688 15.0117 2.32033 15.0117C2.32033 15.0234 2.32033 15.0352 2.32033 15.0469C2.34378 15.0469 2.36719 15.0469 2.39064 15.0469C2.39064 15.0586 2.39064 15.0703 2.39064 15.0821C2.41409 15.0821 2.4375 15.0821 2.46095 15.0821C2.67541 15.2241 2.99846 15.5984 3.05861 15.8906C4.54674 15.8906 6.03532 15.8906 7.52345 15.8906C7.59454 15.5064 8.08926 15.014 8.47267 14.9414C8.47267 14.1915 8.47267 13.4413 8.47267 12.6914C6.96109 12.6914 5.44909 12.6914 3.93751 12.6914C3.14274 12.6914 2.27294 12.7627 1.79298 12.4453C1.76953 12.4102 1.74612 12.375 1.72267 12.3399C1.69922 12.3399 1.67581 12.3399 1.65236 12.3399C1.62891 12.3047 1.6055 12.2696 1.58205 12.2344C1.53518 12.1992 1.48828 12.1641 1.44142 12.1289C1.44142 12.1055 1.44142 12.0821 1.44142 12.0586C1.40626 12.0352 1.37111 12.0117 1.33595 11.9883C1.33595 11.9649 1.33595 11.9414 1.33595 11.918C1.32425 11.918 1.3125 11.918 1.3008 11.918C1.27735 11.8477 1.25393 11.7774 1.23048 11.707C1.21878 11.707 1.20703 11.707 1.19533 11.707C1.18362 11.6367 1.17188 11.5664 1.16017 11.4961C1.14846 11.4961 1.13672 11.4961 1.12501 11.4961C1.12501 11.4258 1.12501 11.3555 1.12501 11.2852C1.02306 10.9314 1.08986 10.1751 1.08986 9.7383C1.08986 7.92206 1.08986 6.10532 1.08986 4.28908C1.08986 3.84383 1.08986 3.3984 1.08986 2.95314C1.10157 2.71879 1.11331 2.48437 1.12501 2.25002C1.13672 2.25002 1.14846 2.25002 1.16017 2.25002C1.17188 2.17971 1.18362 2.10939 1.19533 2.03908C1.20703 2.03908 1.21878 2.03908 1.23048 2.03908C1.25393 1.96877 1.27735 1.89845 1.3008 1.82814C1.3125 1.82814 1.32425 1.82814 1.33595 1.82814C1.33595 1.80469 1.33595 1.78128 1.33595 1.75783C1.37111 1.73438 1.40626 1.71097 1.44142 1.68752C1.44142 1.66407 1.44142 1.64065 1.44142 1.6172C1.50003 1.57034 1.55863 1.52344 1.6172 1.47658C1.62891 1.45313 1.64065 1.42972 1.65236 1.40627C1.67581 1.40627 1.69922 1.40627 1.72267 1.40627C1.74612 1.37111 1.76953 1.33595 1.79298 1.3008C1.81643 1.3008 1.83985 1.3008 1.8633 1.3008C1.8633 1.28909 1.8633 1.27735 1.8633 1.26564C1.93361 1.24219 2.00392 1.21878 2.07423 1.19533C2.07423 1.18362 2.07423 1.17188 2.07423 1.16017C2.14455 1.14847 2.21486 1.13672 2.28517 1.12502C2.28517 1.11331 2.28517 1.10157 2.28517 1.08986C2.35548 1.08986 2.4258 1.08986 2.49611 1.08986C2.85667 0.985799 3.6332 1.0547 4.07814 1.0547C6.1756 1.0547 8.27365 1.0547 10.3711 1.0547C10.4414 0.91408 10.5117 0.773455 10.582 0.63283C10.6641 0.562517 10.7461 0.492205 10.8281 0.421892C10.8633 0.375029 10.8985 0.328131 10.9336 0.281267C10.9805 0.26956 11.0274 0.257818 11.0742 0.246111C11.0859 0.222662 11.0977 0.199248 11.1094 0.175799C11.1328 0.175799 11.1563 0.175799 11.1797 0.175799C11.1797 0.164091 11.1797 0.152349 11.1797 0.140642C11.6163 -0.0591859 12.3442 1.72472e-05 12.9727 1.72472e-05C13.582 1.72472e-05 14.1915 1.72472e-05 14.8008 1.72472e-05C15.1055 0.0117243 15.4102 0.0234665 15.7149 0.0351735C15.7149 0.0468805 15.7149 0.0586227 15.7149 0.0703298C15.7852 0.0820368 15.8555 0.093779 15.9258 0.105486C15.9258 0.117193 15.9258 0.128935 15.9258 0.140642C15.9961 0.164091 16.0664 0.187506 16.1367 0.210955C16.1367 0.222662 16.1367 0.234404 16.1367 0.246111C16.1602 0.246111 16.1836 0.246111 16.207 0.246111C16.2305 0.281267 16.2539 0.316424 16.2774 0.35158C16.3008 0.35158 16.3242 0.35158 16.3477 0.35158C16.3828 0.398443 16.418 0.445341 16.4531 0.492205C16.4883 0.515654 16.5235 0.539068 16.5586 0.562517C16.5586 0.585967 16.5586 0.609381 16.5586 0.63283C16.5938 0.656279 16.6289 0.679693 16.6641 0.703142C17.0374 1.26912 16.9102 2.58565 16.9102 3.51564C16.9102 5.55449 16.9102 7.59398 16.9102 9.63283C16.9102 10.1836 16.9102 10.7345 16.9102 11.2852C16.8985 11.2852 16.8867 11.2852 16.875 11.2852C16.875 11.3555 16.875 11.4258 16.875 11.4961C16.8633 11.4961 16.8516 11.4961 16.8399 11.4961C16.8282 11.5664 16.8164 11.6367 16.8047 11.707C16.793 11.707 16.7813 11.707 16.7695 11.707C16.7461 11.7774 16.7227 11.8477 16.6992 11.918C16.6875 11.918 16.6758 11.918 16.6641 11.918C16.6641 11.9414 16.6641 11.9649 16.6641 11.9883C16.6289 12.0117 16.5938 12.0352 16.5586 12.0586C16.5586 12.0821 16.5586 12.1055 16.5586 12.1289C16.5117 12.1641 16.4648 12.1992 16.418 12.2344C16.3945 12.2696 16.3711 12.3047 16.3477 12.3399C16.3242 12.3399 16.3008 12.3399 16.2774 12.3399C16.2539 12.375 16.2305 12.4102 16.207 12.4453C15.7264 12.7625 14.8578 12.6914 14.0625 12.6914C12.5509 12.6914 11.0389 12.6914 9.52736 12.6914ZM2.14455 4.21877C2.14455 5.74205 2.14455 7.2658 2.14455 8.78908C2.14455 9.60931 2.14455 10.4298 2.14455 11.25C2.15625 11.25 2.168 11.25 2.1797 11.25C2.20315 11.3203 2.22657 11.3906 2.25001 11.461C2.34374 11.5196 2.43754 11.5782 2.53126 11.6367C2.8945 11.6367 3.25787 11.6367 3.62111 11.6367C4.39448 11.6367 5.16805 11.6367 5.94142 11.6367C8.03888 11.6367 10.1369 11.6367 12.2344 11.6367C13.3124 11.6367 14.3907 11.6367 15.4688 11.6367C15.4688 11.625 15.4688 11.6133 15.4688 11.6016C15.5391 11.5781 15.6094 11.5547 15.6797 11.5313C15.7383 11.4375 15.7969 11.3437 15.8555 11.25C15.8555 10.3829 15.8555 9.51555 15.8555 8.64846C15.8555 7.07831 15.8555 5.50767 15.8555 3.93752C15.8555 3.10558 15.8555 2.27336 15.8555 1.44142C15.8438 1.44142 15.832 1.44142 15.8203 1.44142C15.7969 1.37111 15.7735 1.3008 15.75 1.23049C15.6563 1.17188 15.5625 1.11328 15.4688 1.0547C15.0821 1.0547 14.6953 1.0547 14.3086 1.0547C13.4172 1.0547 12.3413 0.978099 11.5664 1.12502C11.5111 1.22409 11.4031 1.29918 11.3555 1.40627C11.332 1.51174 11.3086 1.6172 11.2852 1.72267C11.1537 2.05441 11.0298 2.44556 10.8985 2.77736C10.8985 2.81252 10.8985 2.84767 10.8985 2.88283C10.8867 2.88283 10.875 2.88283 10.8633 2.88283C10.8633 2.91799 10.8633 2.95314 10.8633 2.9883C10.8516 2.9883 10.8398 2.9883 10.8281 2.9883C10.8281 3.02346 10.8281 3.05861 10.8281 3.09377C10.8164 3.09377 10.8047 3.09377 10.793 3.09377C10.793 3.12892 10.793 3.16408 10.793 3.19924C10.7813 3.19924 10.7695 3.19924 10.7578 3.19924C10.7461 3.2461 10.7344 3.293 10.7227 3.33986C10.711 3.33986 10.6992 3.33986 10.6875 3.33986C10.6758 3.38672 10.6641 3.43362 10.6524 3.48049C10.6289 3.49219 10.6055 3.50394 10.582 3.51564C10.582 3.53909 10.582 3.56251 10.582 3.58596C10.5 3.65627 10.418 3.72658 10.336 3.79689C10.3008 3.84376 10.2656 3.89065 10.2305 3.93752C9.66981 4.31696 8.63379 4.21884 7.69923 4.21877C5.84787 4.21877 3.99591 4.21877 2.14455 4.21877ZM2.14455 3.16408C3.73814 3.16408 5.3322 3.16408 6.9258 3.16408C7.79581 3.16408 8.84343 3.23548 9.59767 3.09377C9.63283 3.0469 9.66798 3.00001 9.70314 2.95314C9.71485 2.95314 9.72659 2.95314 9.7383 2.95314C9.83202 2.67193 9.92582 2.39061 10.0195 2.10939C8.39079 2.10939 6.76158 2.10939 5.13283 2.10939C4.26573 2.10939 3.39836 2.10939 2.53126 2.10939C2.53126 2.1211 2.53126 2.13284 2.53126 2.14455C2.46095 2.168 2.39064 2.19141 2.32033 2.21486C2.26176 2.30859 2.20315 2.40238 2.14455 2.49611C2.14455 2.71876 2.14455 2.94144 2.14455 3.16408ZM12.0235 5.41799C12.8202 5.41799 13.6173 5.41799 14.4141 5.41799C14.4141 5.42969 14.4141 5.44144 14.4141 5.45314C14.4844 5.47659 14.5547 5.50001 14.625 5.52346C14.7229 5.70324 14.8006 5.78315 14.8008 6.08596C14.731 6.14825 14.7713 6.15546 14.7305 6.22658C14.7188 6.22658 14.707 6.22658 14.6953 6.22658C14.6953 6.25003 14.6953 6.27344 14.6953 6.29689C14.6016 6.3555 14.5078 6.4141 14.4141 6.47267C14.1797 6.47267 13.9453 6.47267 13.711 6.47267C13.1485 6.47267 12.5859 6.47267 12.0235 6.47267C12.0235 6.46097 12.0235 6.44922 12.0235 6.43752C11.9531 6.41407 11.8828 6.39065 11.8125 6.36721C11.7146 6.18742 11.6369 6.10751 11.6367 5.80471C11.7099 5.74135 11.7143 5.62172 11.7774 5.55861C11.8403 5.49561 11.96 5.49094 12.0235 5.41799ZM12.0235 8.52736C12.8202 8.52736 13.6173 8.52736 14.4141 8.52736C14.4141 8.53907 14.4141 8.55081 14.4141 8.56252C14.4844 8.58597 14.5547 8.60938 14.625 8.63283C14.7229 8.81262 14.8006 8.89253 14.8008 9.19533C14.731 9.25763 14.7713 9.26483 14.7305 9.33596C14.7188 9.33596 14.707 9.33596 14.6953 9.33596C14.6953 9.3594 14.6953 9.38282 14.6953 9.40627C14.6016 9.46484 14.5078 9.52344 14.4141 9.58205C14.1797 9.58205 13.9453 9.58205 13.711 9.58205C13.1485 9.58205 12.5859 9.58205 12.0235 9.58205C12.0235 9.57034 12.0235 9.5586 12.0235 9.54689C11.9531 9.52344 11.8828 9.50003 11.8125 9.47658C11.7146 9.29679 11.6369 9.21688 11.6367 8.91408C11.7099 8.85073 11.7143 8.73109 11.7774 8.66799C11.8403 8.60499 11.96 8.60031 12.0235 8.52736ZM1.44142 15.8906C1.37884 15.9601 1.37199 15.9201 1.3008 15.961C1.3008 15.9727 1.3008 15.9844 1.3008 15.9961C1.27735 15.9961 1.25393 15.9961 1.23048 15.9961C1.23048 16.0078 1.23048 16.0196 1.23048 16.0313C1.21878 16.0313 1.20703 16.0313 1.19533 16.0313C1.18362 16.0664 1.17188 16.1016 1.16017 16.1367C1.14846 16.1367 1.13672 16.1367 1.12501 16.1367C1.06089 16.253 1.05294 16.3736 1.0547 16.5586C1.12417 16.6212 1.08413 16.628 1.12501 16.6992C1.13672 16.6992 1.14846 16.6992 1.16017 16.6992C1.16017 16.7227 1.16017 16.7461 1.16017 16.7696C1.17188 16.7696 1.18362 16.7696 1.19533 16.7696C1.19533 16.7813 1.19533 16.793 1.19533 16.8047C1.23048 16.8164 1.26564 16.8282 1.3008 16.8399C1.3008 16.8516 1.3008 16.8633 1.3008 16.875C1.41706 16.9391 1.53764 16.9471 1.72267 16.9453C1.78525 16.8759 1.7921 16.9159 1.8633 16.875C1.8633 16.8633 1.8633 16.8516 1.8633 16.8399C1.88675 16.8399 1.91016 16.8399 1.93361 16.8399C1.93361 16.8282 1.93361 16.8164 1.93361 16.8047C1.94532 16.8047 1.95706 16.8047 1.96876 16.8047C1.98047 16.7696 1.99221 16.7344 2.00392 16.6992C2.01563 16.6992 2.02737 16.6992 2.03908 16.6992C2.1032 16.583 2.11115 16.4624 2.10939 16.2774C2.03626 16.214 2.0318 16.0944 1.96876 16.0313C1.9058 15.9683 1.78609 15.9636 1.72267 15.8906C1.62894 15.8906 1.53515 15.8906 1.44142 15.8906ZM8.85939 15.8906C8.79681 15.9601 8.78996 15.9201 8.71877 15.961C8.71877 15.9727 8.71877 15.9844 8.71877 15.9961C8.69532 15.9961 8.6719 15.9961 8.64845 15.9961C8.64845 16.0078 8.64845 16.0196 8.64845 16.0313C8.63675 16.0313 8.625 16.0313 8.6133 16.0313C8.60159 16.0664 8.58985 16.1016 8.57814 16.1367C8.56643 16.1367 8.55469 16.1367 8.54298 16.1367C8.47886 16.253 8.47091 16.3736 8.47267 16.5586C8.54214 16.6212 8.5021 16.628 8.54298 16.6992C8.55469 16.6992 8.56643 16.6992 8.57814 16.6992C8.57814 16.7227 8.57814 16.7461 8.57814 16.7696C8.58985 16.7696 8.60159 16.7696 8.6133 16.7696C8.6133 16.7813 8.6133 16.793 8.6133 16.8047C8.64845 16.8164 8.68361 16.8282 8.71877 16.8399C8.71877 16.8516 8.71877 16.8633 8.71877 16.875C8.83503 16.9391 8.95561 16.9471 9.14064 16.9453C9.20322 16.8759 9.21007 16.9159 9.28127 16.875C9.28127 16.8633 9.28127 16.8516 9.28127 16.8399C9.30471 16.8399 9.32813 16.8399 9.35158 16.8399C9.35158 16.8282 9.35158 16.8164 9.35158 16.8047C9.36329 16.8047 9.37503 16.8047 9.38673 16.8047C9.39844 16.7696 9.41018 16.7344 9.42189 16.6992C9.4336 16.6992 9.44534 16.6992 9.45705 16.6992C9.52117 16.583 9.52912 16.4624 9.52736 16.2774C9.45423 16.214 9.44977 16.0944 9.38673 16.0313C9.32377 15.9683 9.20406 15.9636 9.14064 15.8906C9.04691 15.8906 8.95312 15.8906 8.85939 15.8906ZM16.2774 15.8906C16.2148 15.9601 16.2079 15.9201 16.1367 15.961C16.1367 15.9727 16.1367 15.9844 16.1367 15.9961C16.1133 15.9961 16.0899 15.9961 16.0664 15.9961C16.0664 16.0078 16.0664 16.0196 16.0664 16.0313C15.9707 16.1144 16.0568 16.0324 15.9961 16.1367C15.9844 16.1367 15.9727 16.1367 15.961 16.1367C15.8968 16.253 15.8889 16.3736 15.8906 16.5586C15.9601 16.6212 15.9201 16.628 15.961 16.6992C15.9727 16.6992 15.9844 16.6992 15.9961 16.6992C15.9961 16.7227 15.9961 16.7461 15.9961 16.7696C16.0078 16.7696 16.0196 16.7696 16.0313 16.7696C16.0313 16.7813 16.0313 16.793 16.0313 16.8047C16.0664 16.8164 16.1016 16.8282 16.1367 16.8399C16.1367 16.8516 16.1367 16.8633 16.1367 16.875C16.253 16.9391 16.3736 16.9471 16.5586 16.9453C16.6212 16.8759 16.628 16.9159 16.6992 16.875C16.6992 16.8633 16.6992 16.8516 16.6992 16.8399C16.7227 16.8399 16.7461 16.8399 16.7695 16.8399C16.7695 16.8282 16.7695 16.8164 16.7695 16.8047C16.7813 16.8047 16.793 16.8047 16.8047 16.8047C16.8164 16.7696 16.8282 16.7344 16.8399 16.6992C16.8516 16.6992 16.8633 16.6992 16.875 16.6992C16.9391 16.583 16.9471 16.4624 16.9453 16.2774C16.8722 16.214 16.8677 16.0944 16.8047 16.0313C16.7417 15.9683 16.622 15.9636 16.5586 15.8906C16.4649 15.8906 16.3711 15.8906 16.2774 15.8906Z" fill="white"/>
</g>
<defs>
<clipPath id="clip0">
<rect width="18" height="18" fill="white"/>
</clipPath>
</defs>
</svg>
