<svg width="22" height="22" viewBox="0 0 22 22" fill="none" xmlns="http://www.w3.org/2000/svg">
<path d="M10.2519 18.8801C12.8214 18.3575 14.9432 17.925 14.9677 17.9192L15.0123 17.9084L12.5868 14.5868C11.2524 12.7601 10.1613 11.258 10.1613 11.2494C10.1613 11.2407 12.666 3.29191 12.6803 3.26384C12.6854 3.25449 14.3897 6.64231 16.8124 11.4768L20.9682 19.769L20.9998 19.8323H5.58154L10.2519 18.8801Z" fill="white"/>
<path d="M1 17.8667C1 17.8624 2.14295 15.5779 3.53997 12.7904L6.07993 7.72266L9.04311 4.86385C10.6712 3.29122 12.0077 2.00216 12.0128 2C12.0021 2.04768 11.9862 2.09403 11.9653 2.13819L8.74801 10.0741L5.58835 17.8689H3.2931C2.52875 17.8767 1.76433 17.8759 1 17.8667Z" fill="white"/>
</svg>
