<svg width="20" height="20" viewBox="0 0 20 20" fill="none" xmlns="http://www.w3.org/2000/svg">
<path d="M8.15558 8.22779C7.41256 8.22779 6.68624 8.00739 6.06853 7.59447C5.45081 7.18156 4.96945 6.5947 4.68537 5.90814C4.40128 5.22157 4.32724 4.46617 4.4726 3.73751C4.61796 3.00886 4.97619 2.33969 5.50197 1.81469C6.02775 1.28969 6.69744 0.932443 7.42632 0.788162C8.15519 0.643881 8.91048 0.719047 9.59662 1.00415C10.2828 1.28925 10.8689 1.77147 11.2809 2.3898C11.6929 3.00813 11.9122 3.73477 11.9111 4.47779C11.9082 5.47241 11.5114 6.42537 10.8076 7.12816C10.1038 7.83094 9.1502 8.22632 8.15558 8.22779ZM8.15558 1.83334C7.63256 1.83334 7.12128 1.98844 6.6864 2.27901C6.25153 2.56959 5.91258 2.98259 5.71243 3.4658C5.51228 3.94901 5.45991 4.48072 5.56195 4.99369C5.66398 5.50667 5.91584 5.97786 6.28567 6.34769C6.65551 6.71752 7.1267 6.96938 7.63967 7.07142C8.15264 7.17346 8.68435 7.12109 9.16756 6.92094C9.65077 6.72078 10.0638 6.38184 10.3544 5.94696C10.6449 5.51209 10.8 5.00081 10.8 4.47779C10.8 3.77644 10.5214 3.10381 10.0255 2.60788C9.52955 2.11195 8.85693 1.83334 8.15558 1.83334Z" fill="white"/>
<path d="M9.1222 17.6C9.00078 17.4785 8.90712 17.3322 8.84765 17.1711C8.78819 17.0099 8.76435 16.8378 8.77775 16.6666H2.2222V13.4555C3.00992 12.615 3.96537 11.9492 5.02669 11.5013C6.08802 11.0535 7.23156 10.8334 8.38331 10.8555H8.78331C8.75781 10.6692 8.77562 10.4796 8.83536 10.3014C8.8951 10.1231 8.99516 9.96102 9.12775 9.82774L9.19442 9.76662C8.93331 9.76662 8.63886 9.73329 8.38331 9.73329C7.02798 9.70111 5.68243 9.97051 4.44396 10.522C3.20549 11.0735 2.10504 11.8933 1.2222 12.9222C1.15007 13.0183 1.11108 13.1353 1.11108 13.2555V16.6666C1.11108 16.9613 1.22815 17.2439 1.43652 17.4523C1.64489 17.6607 1.92751 17.7777 2.2222 17.7777H9.27775L9.1222 17.6Z" fill="white"/>
<path d="M14.9278 9.05004C14.9553 9.04435 14.9836 9.04435 15.0111 9.05004C14.9836 9.04504 14.9553 9.04504 14.9278 9.05004Z" fill="white"/>
<path d="M18.7111 12.9555L17.6 12.6166C17.5206 12.3449 17.4126 12.0823 17.2778 11.8333L17.8333 10.8C17.8514 10.7586 17.8558 10.7126 17.8458 10.6686C17.8358 10.6246 17.812 10.585 17.7778 10.5555L16.9722 9.74997C16.9418 9.71699 16.9011 9.69522 16.8568 9.68817C16.8124 9.68112 16.767 9.68919 16.7278 9.71108L15.7056 10.2666C15.4539 10.1251 15.1875 10.0115 14.9111 9.92775L14.5722 8.81664C14.5579 8.77574 14.5306 8.74062 14.4945 8.71657C14.4584 8.69253 14.4155 8.68085 14.3722 8.6833H13.2333C13.1896 8.6828 13.1469 8.69665 13.1118 8.72274C13.0766 8.74883 13.0511 8.78572 13.0389 8.82775L12.7 9.93886C12.4218 10.0198 12.1534 10.1316 11.9 10.2722L10.8889 9.71664C10.8506 9.69516 10.8061 9.68732 10.7627 9.69438C10.7193 9.70144 10.6796 9.723 10.65 9.75553L9.82779 10.5555C9.79731 10.5876 9.77768 10.6285 9.7717 10.6724C9.76572 10.7162 9.77368 10.7609 9.79446 10.8L10.35 11.8111C10.2031 12.0615 10.0856 12.3281 10 12.6055L8.8889 12.9389C8.84687 12.951 8.80999 12.9766 8.7839 13.0117C8.75781 13.0469 8.74395 13.0896 8.74446 13.1333V14.2722C8.74774 14.3123 8.7634 14.3504 8.78927 14.3813C8.81515 14.4121 8.84996 14.4342 8.8889 14.4444L10 14.7833C10.0821 15.0558 10.1939 15.3185 10.3333 15.5666L9.77779 16.6278C9.75659 16.6658 9.74838 16.7097 9.75439 16.7528C9.76041 16.7959 9.78033 16.8359 9.81113 16.8666L10.6167 17.6722C10.6481 17.7036 10.6887 17.7242 10.7326 17.7312C10.7765 17.7382 10.8215 17.7312 10.8611 17.7111L11.9 17.1555C12.1472 17.2885 12.408 17.3947 12.6778 17.4722L13.0111 18.5833C13.0248 18.6244 13.0508 18.6603 13.0856 18.6862C13.1204 18.712 13.1623 18.7265 13.2056 18.7277H14.3445C14.388 18.7274 14.4303 18.7132 14.4652 18.6872C14.5002 18.6613 14.526 18.6249 14.5389 18.5833L14.8778 17.4444C15.144 17.3668 15.4011 17.2606 15.6445 17.1278L16.6945 17.6833C16.7331 17.7038 16.7773 17.7111 16.8205 17.7041C16.8636 17.6971 16.9032 17.6761 16.9333 17.6444L17.7778 16.8889C17.8005 16.8563 17.8127 16.8175 17.8127 16.7778C17.8127 16.738 17.8005 16.6992 17.7778 16.6666L17.2222 15.6222C17.3571 15.3771 17.4651 15.1182 17.5445 14.85L18.6556 14.5111C18.6976 14.4989 18.7345 14.4733 18.7606 14.4382C18.7867 14.4031 18.8005 14.3604 18.8 14.3166V13.15C18.8051 13.1125 18.7995 13.0743 18.7837 13.0399C18.768 13.0055 18.7428 12.9762 18.7111 12.9555ZM13.8056 15.5555C13.4381 15.5566 13.0786 15.4486 12.7726 15.2451C12.4666 15.0417 12.2279 14.7519 12.0868 14.4126C11.9456 14.0733 11.9084 13.6998 11.9799 13.3393C12.0513 12.9789 12.2281 12.6477 12.4879 12.3879C12.7478 12.1281 13.0789 11.9512 13.4394 11.8798C13.7998 11.8084 14.1734 11.8456 14.5127 11.9867C14.852 12.1279 15.1417 12.3666 15.3452 12.6726C15.5486 12.9785 15.6567 13.3381 15.6556 13.7055C15.6541 14.1957 15.4587 14.6654 15.1121 15.0121C14.7655 15.3587 14.2958 15.5541 13.8056 15.5555Z" fill="white"/>
</svg>
