<svg width="23" height="23" viewBox="0 0 23 23" fill="none" xmlns="http://www.w3.org/2000/svg">
<g clip-path="url(#clip0)">
<path d="M12.9501 4.23411C15.1524 4.82422 16.457 7.08388 15.8669 9.28619L13.8287 16.8929C13.3997 18.4939 11.7555 19.4432 10.1545 19.0142C8.55349 18.5852 7.6042 16.941 8.03319 15.3399L9.68316 9.18216C9.81187 8.70182 10.1261 8.29229 10.5568 8.04365C10.9874 7.79501 11.4992 7.72763 11.9796 7.85634C12.4599 7.98504 12.8694 8.29929 13.1181 8.72995C13.3667 9.1606 13.4341 9.6724 13.3054 10.1527L11.8495 15.5861L10.4006 15.1978L11.874 9.6993C11.9807 9.30086 11.2563 9.10674 11.1495 9.50519L9.48208 15.7282C9.26855 16.5251 9.74585 17.3518 10.5427 17.5653C11.3396 17.7788 12.1663 17.3015 12.3799 16.5046L14.4181 8.89796C14.7927 7.49978 13.9601 6.05764 12.5619 5.683C11.1637 5.30836 9.72158 6.14098 9.34694 7.53916L7.50286 14.4214L6.05397 14.0332L7.89806 7.15093C8.48816 4.94862 10.7478 3.64401 12.9501 4.23411Z" fill="#999999"/>
</g>
<defs>
<clipPath id="clip0">
<rect width="18" height="18" fill="white" transform="translate(22.394 5.21165) rotate(105)"/>
</clipPath>
</defs>
</svg>
