<svg width="16" height="20" viewBox="0 0 16 20" fill="none" xmlns="http://www.w3.org/2000/svg">
<path d="M0 4C0 3.31 0.315 2.707 0.774 2.22C1.229 1.738 1.853 1.337 2.567 1.018C3.996 0.377 5.917 0 8 0C10.083 0 12.004 0.377 13.433 1.018C14.147 1.338 14.771 1.738 15.226 2.22C15.685 2.707 16 3.31 16 4V16C16 16.69 15.685 17.293 15.226 17.78C14.771 18.262 14.147 18.663 13.433 18.983C12.004 19.623 10.083 20 8 20C5.917 20 3.996 19.623 2.567 18.983C1.853 18.663 1.229 18.263 0.774 17.78C0.315 17.293 0 16.69 0 16V4ZM1.5 4C1.5 4.207 1.59 4.46 1.865 4.75C2.144 5.046 2.582 5.346 3.18 5.614C4.375 6.149 6.079 6.5 8 6.5C9.921 6.5 11.625 6.15 12.82 5.614C13.418 5.346 13.856 5.046 14.135 4.75C14.41 4.46 14.5 4.207 14.5 4C14.5 3.793 14.41 3.54 14.135 3.25C13.856 2.954 13.418 2.654 12.82 2.386C11.625 1.851 9.92 1.5 8 1.5C6.079 1.5 4.375 1.85 3.18 2.386C2.582 2.654 2.144 2.954 1.865 3.25C1.59 3.54 1.5 3.793 1.5 4ZM14.5 6.392C14.18 6.612 13.82 6.809 13.433 6.982C12.004 7.623 10.083 8 8 8C5.917 8 3.996 7.623 2.567 6.982C2.19439 6.81768 1.83728 6.62022 1.5 6.392V16C1.5 16.207 1.59 16.46 1.865 16.75C2.144 17.046 2.582 17.346 3.18 17.614C4.375 18.149 6.079 18.5 8 18.5C9.921 18.5 11.625 18.15 12.82 17.614C13.418 17.346 13.856 17.046 14.135 16.75C14.41 16.46 14.5 16.207 14.5 16V6.392Z" fill="white"/>
</svg>
