<svg width="18" height="14" viewBox="0 0 18 14" fill="none" xmlns="http://www.w3.org/2000/svg">
<path d="M14.625 0.333328C15.3168 0.333283 15.9824 0.597956 16.4852 1.07305C16.9881 1.54815 17.29 2.19766 17.3292 2.88833L17.3334 3.04166V10.9583C17.3334 11.6501 17.0687 12.3157 16.5936 12.8185C16.1185 13.3214 15.469 13.6233 14.7784 13.6625L14.625 13.6667H7.54086C6.90574 13.6669 6.29074 13.4439 5.80336 13.0367L5.67419 12.9208L1.51169 8.96249C0.991309 8.46759 0.688791 7.78626 0.670664 7.06834C0.652536 6.35043 0.920283 5.6547 1.41503 5.13416L1.51169 5.03749L5.67419 1.07916C6.13443 0.6416 6.73378 0.379677 7.36753 0.339162L7.54169 0.333328H14.6259H14.625ZM14.625 1.58333H7.54086C7.21463 1.58309 6.89774 1.69224 6.64086 1.89333L6.53586 1.98499L2.37253 5.94333L2.32086 5.99499C2.07114 6.25768 1.92818 6.60395 1.91986 6.9663C1.91154 7.32866 2.03845 7.68112 2.27586 7.95499L2.37253 8.05666L6.53586 12.015C6.77336 12.24 7.07753 12.3792 7.40169 12.41L7.54086 12.4167H14.625C14.9912 12.4166 15.3439 12.2789 15.6131 12.0308C15.8824 11.7827 16.0484 11.4424 16.0784 11.0775L16.0834 10.9583V3.04166C16.0833 2.67554 15.9456 2.32282 15.6975 2.05357C15.4494 1.78432 15.1091 1.61825 14.7442 1.58833L14.625 1.58333ZM8.53836 3.99749L8.60836 4.05833L10.6667 6.11583L12.725 4.05749C12.8365 3.94567 12.9863 3.88021 13.1441 3.87427C13.3019 3.86834 13.4561 3.92237 13.5757 4.02551C13.6953 4.12864 13.7715 4.27323 13.7888 4.43021C13.8061 4.58719 13.7634 4.74491 13.6692 4.87166L13.6084 4.94166L11.5509 6.99999L13.6092 9.05833C13.721 9.16985 13.7865 9.31957 13.7924 9.47739C13.7984 9.63521 13.7443 9.78942 13.6412 9.90903C13.538 10.0286 13.3935 10.1048 13.2365 10.1221C13.0795 10.1394 12.9218 10.0967 12.795 10.0025L12.725 9.94166L10.6667 7.88416L8.60836 9.94249C8.49684 10.0543 8.34712 10.1198 8.1893 10.1257C8.03148 10.1317 7.87726 10.0776 7.75766 9.97448C7.63805 9.87135 7.56193 9.72676 7.54459 9.56978C7.52725 9.4128 7.56998 9.25508 7.66419 9.12833L7.72503 9.05833L9.78336 6.99999L7.72503 4.94166C7.61423 4.82999 7.54962 4.68065 7.54408 4.52344C7.53854 4.36623 7.59249 4.21272 7.69516 4.09353C7.79783 3.97435 7.94166 3.89827 8.09796 3.88046C8.25426 3.86266 8.41152 3.90445 8.53836 3.99749Z" fill="#fff"/>
</svg>
