<svg width="22" height="22" viewBox="0 0 22 22" fill="none" xmlns="http://www.w3.org/2000/svg">
<path d="M18.5625 2.0625H3.4375C3.07283 2.0625 2.72309 2.20737 2.46523 2.46523C2.20737 2.72309 2.0625 3.07283 2.0625 3.4375V18.5625C2.0625 18.9272 2.20737 19.2769 2.46523 19.5348C2.72309 19.7926 3.07283 19.9375 3.4375 19.9375H18.5625C18.9272 19.9375 19.2769 19.7926 19.5348 19.5348C19.7926 19.2769 19.9375 18.9272 19.9375 18.5625V3.4375C19.9375 3.07283 19.7926 2.72309 19.5348 2.46523C19.2769 2.20737 18.9272 2.0625 18.5625 2.0625ZM3.4375 3.4375H18.5625V5.1875H3.4375V3.4375ZM3.4375 18.5625V6.5625H18.5625V18.5625H3.4375Z" fill="white"/>
<path d="M16.8997 12.9774L16.1283 12.7422C16.0736 12.5534 15.9986 12.371 15.9046 12.1984L16.2903 11.481C16.3049 11.4537 16.3101 11.4223 16.3052 11.3917C16.3003 11.361 16.2856 11.3328 16.2633 11.3113L15.6925 10.7521C15.671 10.7298 15.6428 10.7151 15.6122 10.7102C15.5816 10.7053 15.5502 10.7106 15.5228 10.7251L14.8093 11.1108C14.6351 11.0095 14.4501 10.928 14.2578 10.8678L14.0226 10.0965C14.0127 10.0677 13.9939 10.0428 13.969 10.0255C13.944 10.0081 13.9141 9.99923 13.8837 10.0001H13.1124C13.0822 10.0003 13.0528 10.0102 13.0285 10.0282C13.0043 10.0462 12.9864 10.0715 12.9774 10.1003L12.7421 10.8717C12.5488 10.9291 12.3625 11.008 12.1868 11.1069L11.4848 10.7213C11.4575 10.7067 11.4261 10.7015 11.3955 10.7064C11.3649 10.7112 11.3367 10.7259 11.3151 10.7483L10.7482 11.3036C10.7259 11.3251 10.7112 11.3533 10.7063 11.384C10.7014 11.4146 10.7067 11.4459 10.7212 11.4733L11.1069 12.1752C11.008 12.351 10.929 12.5373 10.8716 12.7306L10.1003 12.9659C10.0714 12.9749 10.0462 12.9928 10.0281 13.017C10.0101 13.0413 10.0003 13.0706 10 13.1009V13.8722C10.0003 13.9024 10.0101 13.9318 10.0281 13.956C10.0462 13.9803 10.0714 13.9982 10.1003 14.0072L10.8716 14.2424C10.9298 14.4318 11.0087 14.6142 11.1069 14.7862L10.7212 15.519C10.7067 15.5464 10.7014 15.5778 10.7063 15.6084C10.7112 15.639 10.7259 15.6672 10.7482 15.6887L11.292 16.2672C11.3135 16.2895 11.3417 16.3043 11.3723 16.3091C11.4029 16.314 11.4343 16.3088 11.4617 16.2942L12.1829 15.9085C12.3533 16.0007 12.533 16.0744 12.719 16.1284L12.9542 16.8997C12.9632 16.9286 12.9811 16.9538 13.0054 16.9719C13.0297 16.9899 13.059 16.9997 13.0892 17H13.8606C13.8908 16.9997 13.9202 16.9899 13.9444 16.9719C13.9687 16.9538 13.9866 16.9286 13.9956 16.8997L14.2308 16.1284C14.4156 16.0743 14.594 16.0006 14.7631 15.9085L15.492 16.2942C15.5193 16.3088 15.5507 16.314 15.5813 16.3091C15.612 16.3043 15.6402 16.2895 15.6617 16.2672L16.2209 15.708C16.2432 15.6865 16.2579 15.6583 16.2628 15.6277C16.2677 15.5971 16.2624 15.5657 16.2479 15.5383L15.8622 14.8132C15.9557 14.643 16.0307 14.4633 16.0859 14.2772L16.8572 14.0419C16.8861 14.0329 16.9114 14.015 16.9294 13.9907C16.9474 13.9665 16.9573 13.9371 16.9575 13.9069V13.1163C16.9618 13.09 16.9586 13.0632 16.9484 13.0386C16.9382 13.0141 16.9213 12.9929 16.8997 12.9774ZM13.4903 14.7978C13.2358 14.8001 12.9864 14.7267 12.7737 14.587C12.561 14.4473 12.3946 14.2475 12.2956 14.0131C12.1966 13.7786 12.1695 13.52 12.2178 13.2701C12.266 13.0203 12.3874 12.7903 12.5665 12.6096C12.7457 12.4288 12.9745 12.3053 13.2239 12.2548C13.4734 12.2043 13.7322 12.2291 13.9675 12.3259C14.2029 12.4228 14.4041 12.5874 14.5458 12.7988C14.6874 13.0103 14.763 13.259 14.7631 13.5135C14.7631 13.8521 14.6293 14.1771 14.391 14.4176C14.1526 14.6581 13.8289 14.7948 13.4903 14.7978Z" fill="white"/>
<path d="M9.92834 10.1267L9.37738 9.9587C9.3383 9.82384 9.28472 9.6936 9.2176 9.57027L9.49308 9.05788C9.50347 9.03832 9.50721 9.01592 9.50373 8.99405C9.50025 8.97218 9.48974 8.95204 9.4738 8.93667L9.06609 8.53722C9.05072 8.52128 9.03058 8.51077 9.00871 8.50729C8.98684 8.50381 8.96443 8.50755 8.94487 8.51794L8.43524 8.79342C8.31081 8.72105 8.17868 8.66283 8.0413 8.61987L7.87326 8.06891C7.86622 8.04836 7.8528 8.0306 7.83497 8.01821C7.81713 8.00582 7.7958 7.99945 7.77408 8.00004H7.22312C7.20154 8.00023 7.18057 8.00727 7.16324 8.02014C7.14592 8.03301 7.13312 8.05105 7.12671 8.07166L6.95866 8.62262C6.82057 8.66364 6.68751 8.72001 6.56197 8.79066L6.0606 8.51518C6.04104 8.5048 6.01863 8.50106 5.99677 8.50454C5.9749 8.50802 5.95475 8.51852 5.93939 8.53447L5.53443 8.93116C5.51849 8.94653 5.50798 8.96667 5.5045 8.98854C5.50102 9.01041 5.50476 9.03281 5.51515 9.05237L5.79063 9.55374C5.71997 9.67928 5.66361 9.81234 5.62258 9.95044L5.07162 10.1185C5.05101 10.1249 5.03297 10.1377 5.0201 10.155C5.00723 10.1723 5.00019 10.1933 5 10.2149V10.7659C5.00019 10.7874 5.00723 10.8084 5.0201 10.8257C5.03297 10.8431 5.05101 10.8559 5.07162 10.8623L5.62258 11.0303C5.66418 11.1656 5.72053 11.2958 5.79063 11.4187L5.51515 11.9422C5.50476 11.9617 5.50102 11.9841 5.5045 12.006C5.50798 12.0279 5.51849 12.048 5.53443 12.0634L5.92286 12.4766C5.93822 12.4925 5.95837 12.503 5.98024 12.5065C6.00211 12.51 6.02451 12.5063 6.04407 12.4959L6.55922 12.2204C6.68091 12.2862 6.80927 12.3388 6.94213 12.3774L7.11018 12.9284C7.11659 12.949 7.12939 12.967 7.14672 12.9799C7.16404 12.9928 7.18501 12.9998 7.2066 13H7.75756C7.77914 12.9998 7.80011 12.9928 7.81744 12.9799C7.83476 12.967 7.84756 12.949 7.85397 12.9284L8.02202 12.3774C8.15397 12.3388 8.28142 12.2861 8.40218 12.2204L8.92284 12.4959C8.94239 12.5063 8.9648 12.51 8.98667 12.5065C9.00854 12.503 9.02868 12.4925 9.04405 12.4766L9.44349 12.0771C9.45944 12.0618 9.46994 12.0416 9.47342 12.0198C9.4769 11.9979 9.47317 11.9755 9.46278 11.9559L9.1873 11.438C9.25406 11.3165 9.30762 11.1881 9.34707 11.0551L9.89804 10.8871C9.91865 10.8807 9.93669 10.8679 9.94956 10.8505C9.96243 10.8332 9.96947 10.8122 9.96966 10.7906V10.2259C9.97269 10.2072 9.97043 10.188 9.96313 10.1704C9.95583 10.1529 9.94378 10.1378 9.92834 10.1267ZM7.49309 11.427C7.31132 11.4286 7.13315 11.3762 6.98121 11.2764C6.82927 11.1766 6.71041 11.034 6.63971 10.8665C6.569 10.699 6.54965 10.5143 6.58411 10.3358C6.61857 10.1573 6.70528 9.9931 6.83324 9.86398C6.9612 9.73485 7.12463 9.64666 7.3028 9.61059C7.48097 9.57452 7.66584 9.5922 7.83395 9.66138C8.00205 9.73056 8.14582 9.84813 8.24698 9.99916C8.34815 10.1502 8.40217 10.3279 8.40218 10.5097C8.40219 10.7515 8.30667 10.9836 8.13642 11.1554C7.96617 11.3272 7.73496 11.4248 7.49309 11.427Z" fill="white"/>
</svg>
