<svg width="20" height="20" viewBox="0 0 20 20" fill="none" xmlns="http://www.w3.org/2000/svg">
<path d="M0.708344 1.60417C0.708344 1.38868 0.793946 1.18201 0.946319 1.02964C1.09869 0.877268 1.30536 0.791666 1.52084 0.791666H2.12534C3.15451 0.791666 3.77201 1.48392 4.12409 2.12742C4.35918 2.55642 4.52926 3.05367 4.66251 3.50433C4.69855 3.50149 4.73469 3.50004 4.77084 3.5H18.3103C19.2095 3.5 19.8595 4.36017 19.6125 5.22575L17.6322 12.1688C17.4546 12.7916 17.079 13.3395 16.5622 13.7297C16.0453 14.1199 15.4154 14.331 14.7678 14.3312H8.32418C7.67146 14.3312 7.0368 14.1169 6.51775 13.7211C5.99869 13.3254 5.62397 12.7701 5.45118 12.1407L4.62784 9.13767L3.26284 4.53567L3.26176 4.527C3.09276 3.91275 2.93459 3.3375 2.69843 2.9085C2.47201 2.49142 2.29001 2.41667 2.12643 2.41667H1.52084C1.30536 2.41667 1.09869 2.33106 0.946319 2.17869C0.793946 2.02632 0.708344 1.81965 0.708344 1.60417ZM6.20409 8.74333L7.01768 11.7106C7.18018 12.2977 7.71426 12.7062 8.32418 12.7062H14.7678C15.0622 12.7062 15.3485 12.6102 15.5835 12.433C15.8184 12.2557 15.9892 12.0066 16.07 11.7236L17.9518 5.125H5.13376L6.18893 8.68591L6.20409 8.74333Z" fill="white"/>
<path d="M9.91668 17.5833C9.91668 18.158 9.6884 18.7091 9.28207 19.1154C8.87575 19.5217 8.32465 19.75 7.75001 19.75C7.17537 19.75 6.62427 19.5217 6.21795 19.1154C5.81162 18.7091 5.58334 18.158 5.58334 17.5833C5.58334 17.0087 5.81162 16.4576 6.21795 16.0513C6.62427 15.6449 7.17537 15.4167 7.75001 15.4167C8.32465 15.4167 8.87575 15.6449 9.28207 16.0513C9.6884 16.4576 9.91668 17.0087 9.91668 17.5833ZM8.29168 17.5833C8.29168 17.4397 8.23461 17.3019 8.13303 17.2003C8.03145 17.0987 7.89367 17.0417 7.75001 17.0417C7.60635 17.0417 7.46858 17.0987 7.36699 17.2003C7.26541 17.3019 7.20834 17.4397 7.20834 17.5833C7.20834 17.727 7.26541 17.8648 7.36699 17.9663C7.46858 18.0679 7.60635 18.125 7.75001 18.125C7.89367 18.125 8.03145 18.0679 8.13303 17.9663C8.23461 17.8648 8.29168 17.727 8.29168 17.5833Z" fill="white"/>
<path d="M17.5 17.5833C17.5 18.158 17.2717 18.7091 16.8654 19.1154C16.4591 19.5217 15.908 19.75 15.3334 19.75C14.7587 19.75 14.2076 19.5217 13.8013 19.1154C13.395 18.7091 13.1667 18.158 13.1667 17.5833C13.1667 17.0087 13.395 16.4576 13.8013 16.0513C14.2076 15.6449 14.7587 15.4167 15.3334 15.4167C15.908 15.4167 16.4591 15.6449 16.8654 16.0513C17.2717 16.4576 17.5 17.0087 17.5 17.5833ZM15.875 17.5833C15.875 17.4397 15.818 17.3019 15.7164 17.2003C15.6148 17.0987 15.477 17.0417 15.3334 17.0417C15.1897 17.0417 15.0519 17.0987 14.9503 17.2003C14.8488 17.3019 14.7917 17.4397 14.7917 17.5833C14.7917 17.727 14.8488 17.8648 14.9503 17.9663C15.0519 18.0679 15.1897 18.125 15.3334 18.125C15.477 18.125 15.6148 18.0679 15.7164 17.9663C15.818 17.8648 15.875 17.727 15.875 17.5833Z" fill="white"/>
</svg>
