<svg width="26" height="26" viewBox="0 0 26 26" fill="none" xmlns="http://www.w3.org/2000/svg">
<g clip-path="url(#clip0)">
<path d="M19.3003 20.9161V19.6031L19.2743 19.615C18.9788 19.758 18.6574 19.8395 18.3276 19.8549C17.9866 19.8809 17.6478 19.7812 17.3751 19.5748C17.1806 19.4247 17.0357 19.2196 16.9591 18.9862C16.8763 18.7312 16.8669 18.4581 16.9319 18.198C16.9934 17.9321 17.1423 17.6945 17.3538 17.5255C17.5429 17.3671 17.7734 17.2679 18.018 17.2395C18.4499 17.1911 18.8865 17.2726 19.2719 17.4735L19.3003 17.4889V16.1688L19.24 16.1522C18.8543 16.0291 18.4496 15.9763 18.0452 15.9962C17.6768 16.0055 17.314 16.0882 16.978 16.2397C16.6388 16.3957 16.3398 16.6261 16.1046 16.9145C15.7458 17.3678 15.5467 17.9268 15.5381 18.5049C15.5296 19.0829 15.7121 19.6476 16.0574 20.1113C16.406 20.5581 16.8953 20.8736 17.446 21.0048C18.0263 21.1466 18.6349 21.1253 19.2034 20.9433L19.3003 20.9161ZM6.30618 20.9161V19.6031L6.28018 19.615C5.98473 19.758 5.66327 19.8395 5.33355 19.8549C4.99246 19.8812 4.65355 19.7815 4.381 19.5748C4.18654 19.4249 4.04194 19.2198 3.96618 18.9862C3.8825 18.7314 3.87267 18.4581 3.93782 18.198C3.99927 17.9321 4.147 17.6945 4.35973 17.5255C4.54882 17.3671 4.77927 17.2679 5.02391 17.2395C5.45585 17.1911 5.8924 17.2726 6.27782 17.4735L6.30618 17.4889V16.1688L6.24591 16.1522C5.86018 16.0291 5.45549 15.9763 5.05109 15.9962C4.68271 16.0056 4.3199 16.0884 3.98391 16.2397C3.64497 16.3954 3.34591 16.6261 3.10936 16.9145C2.75093 17.3679 2.55193 17.9268 2.54317 18.5047C2.53441 19.0826 2.71638 19.6473 3.06091 20.1113C3.40919 20.5584 3.89938 20.8735 4.45073 21.0048C5.031 21.1466 5.63845 21.1253 6.20809 20.9433L6.30618 20.9161ZM10.9436 19.8265L10.9389 20.9575L11.0216 20.9717C11.2816 21.0201 11.5428 21.0532 11.8064 21.0721C12.0368 21.0946 12.2685 21.0981 12.5001 21.0863C12.7211 21.0698 12.9397 21.0284 13.1513 20.9634C13.3995 20.8925 13.6299 20.7708 13.8261 20.603C14.0032 20.4512 14.1386 20.2568 14.2196 20.038C14.3605 19.6724 14.3576 19.267 14.2114 18.9035C14.1352 18.7144 14.0144 18.5465 13.8592 18.4142C13.7088 18.2798 13.5327 18.1773 13.3415 18.1129L12.4883 17.7961C12.3864 17.7526 12.3037 17.6737 12.2555 17.574C12.2368 17.533 12.228 17.4884 12.2296 17.4434C12.2313 17.3985 12.2434 17.3546 12.2649 17.3151C12.3088 17.2433 12.3718 17.1852 12.4469 17.1473C12.5425 17.1013 12.6452 17.0717 12.7506 17.0599C12.9315 17.0339 13.1146 17.0351 13.2943 17.0658C13.507 17.0894 13.7174 17.126 13.9242 17.1792L13.9691 17.1887V16.1451L13.8875 16.1274C13.676 16.0768 13.4618 16.0385 13.2458 16.0128C12.9658 15.9762 12.6823 15.975 12.402 16.0092C12.0475 16.0411 11.7106 16.1782 11.4317 16.3992C11.2426 16.5481 11.0996 16.7455 11.0169 16.9712C10.894 17.314 10.8928 17.6898 11.0169 18.0337C11.0807 18.2051 11.1824 18.3575 11.3147 18.484C11.4294 18.5939 11.5594 18.6884 11.7012 18.7629C11.8867 18.8621 12.0841 18.939 12.2885 18.9933C12.3559 19.0134 12.4233 19.0347 12.4895 19.0571L12.5899 19.0938L12.6183 19.1056C12.7175 19.1411 12.8097 19.1978 12.8854 19.271C12.9385 19.3207 12.9799 19.3821 13.0047 19.4495C13.0211 19.5118 13.0215 19.5773 13.0059 19.6398C12.974 19.7406 12.9034 19.8247 12.8097 19.8738C12.7079 19.9258 12.598 19.9601 12.4847 19.9754C12.3179 20.0014 12.1487 20.0097 11.9801 20.0002C11.7593 19.9829 11.5395 19.9538 11.3218 19.9128C11.2083 19.8882 11.0953 19.8618 10.9826 19.8336L10.9436 19.8265ZM8.01864 21.0024H9.25955V16.0778H8.01864V21.0024ZM22.3919 17.5326C22.5237 17.4252 22.6754 17.3449 22.8383 17.2961C23.0012 17.2474 23.1721 17.2313 23.3412 17.2486C23.5103 17.2659 23.6744 17.3164 23.824 17.3972C23.9736 17.478 24.1058 17.5874 24.2131 17.7193C24.3207 17.851 24.4012 18.0026 24.4501 18.1655C24.4991 18.3283 24.5154 18.4992 24.4981 18.6684C24.4809 18.8376 24.4305 19.0017 24.3497 19.1513C24.269 19.301 24.1595 19.4332 24.0275 19.5405L24.0075 19.5571C23.7383 19.7634 23.3989 19.856 23.0622 19.8149C22.7256 19.7737 22.4185 19.6022 22.2069 19.3371C21.9953 19.072 21.8962 18.7345 21.9308 18.397C21.9654 18.0596 22.131 17.7493 22.3919 17.5326ZM20.5896 18.5419C20.5957 18.9263 20.6871 19.3045 20.8574 19.6492C21.0276 19.9938 21.2724 20.2963 21.574 20.5347C21.8756 20.773 22.2265 20.9413 22.6012 21.0273C22.9759 21.1133 23.365 21.1149 23.7404 21.032C24.2441 20.9366 24.707 20.6904 25.0675 20.326C25.4281 19.9615 25.6693 19.496 25.7592 18.9913C25.8491 18.4865 25.7833 17.9664 25.5707 17.4998C25.3581 17.0333 25.0087 16.6425 24.5688 16.3791C24.1777 16.1374 23.7297 16.0033 23.2701 15.9905C22.8105 15.9776 22.3557 16.0865 21.9518 16.3061C21.5478 16.5256 21.2091 16.848 20.9699 17.2407C20.7307 17.6333 20.5995 18.0822 20.5896 18.5419ZM27.1357 12.1199C27.1427 12.278 27.2104 12.4274 27.3248 12.5369C27.4391 12.6464 27.5914 12.7075 27.7497 12.7075C27.908 12.7075 28.0602 12.6464 28.1746 12.5369C28.289 12.4274 28.3567 12.278 28.3636 12.1199V10.7549C28.3567 10.5967 28.289 10.4473 28.1746 10.3378C28.0602 10.2284 27.908 10.1673 27.7497 10.1673C27.5914 10.1673 27.4391 10.2284 27.3248 10.3378C27.2104 10.4473 27.1427 10.5967 27.1357 10.7549V12.1199ZM23.7746 12.1199C23.7864 12.2749 23.8563 12.4199 23.9704 12.5256C24.0845 12.6313 24.2343 12.69 24.3898 12.69C24.5453 12.69 24.6951 12.6313 24.8091 12.5256C24.9232 12.4199 24.9931 12.2749 25.0049 12.1199V9.06014C24.9952 8.90374 24.9262 8.75693 24.8121 8.64961C24.6979 8.54229 24.5471 8.48254 24.3904 8.48254C24.2337 8.48254 24.0829 8.54229 23.9687 8.64961C23.8545 8.75693 23.7855 8.90374 23.7758 9.06014V12.1199H23.7746ZM20.3639 13.3525C20.3757 13.5073 20.4455 13.6519 20.5593 13.7574C20.6732 13.8629 20.8226 13.9215 20.9779 13.9215C21.1331 13.9215 21.2826 13.8629 21.3964 13.7574C21.5103 13.6519 21.58 13.5073 21.5918 13.3525V6.73314C21.5849 6.57497 21.5172 6.42558 21.4028 6.31611C21.2884 6.20664 21.1362 6.14554 20.9779 6.14554C20.8195 6.14554 20.6673 6.20664 20.5529 6.31611C20.4386 6.42558 20.3709 6.57497 20.3639 6.73314V13.3525ZM17.0099 12.1199C17.0196 12.2763 17.0886 12.4231 17.2028 12.5304C17.3169 12.6377 17.4678 12.6975 17.6245 12.6975C17.7812 12.6975 17.932 12.6377 18.0461 12.5304C18.1603 12.4231 18.2293 12.2763 18.239 12.1199V9.06014C18.2321 8.90197 18.1643 8.75258 18.05 8.64311C17.9356 8.53364 17.7834 8.47254 17.625 8.47254C17.4667 8.47254 17.3145 8.53364 17.2001 8.64311C17.0858 8.75258 17.018 8.90197 17.0111 9.06014V12.1199H17.0099ZM13.5838 12.1199C13.5988 12.2723 13.6699 12.4137 13.7834 12.5166C13.8969 12.6195 14.0446 12.6765 14.1978 12.6765C14.3509 12.6765 14.4986 12.6195 14.6121 12.5166C14.7256 12.4137 14.7968 12.2723 14.8117 12.1199V10.7549C14.8048 10.5967 14.7371 10.4473 14.6227 10.3378C14.5083 10.2284 14.3561 10.1673 14.1978 10.1673C14.0395 10.1673 13.8872 10.2284 13.7729 10.3378C13.6585 10.4473 13.5908 10.5967 13.5838 10.7549V12.1199ZM10.192 12.1199C10.1989 12.278 10.2667 12.4274 10.381 12.5369C10.4954 12.6464 10.6476 12.7075 10.806 12.7075C10.9643 12.7075 11.1165 12.6464 11.2309 12.5369C11.3453 12.4274 11.413 12.278 11.4199 12.1199V9.06014C11.413 8.90197 11.3453 8.75258 11.2309 8.64311C11.1165 8.53364 10.9643 8.47254 10.806 8.47254C10.6476 8.47254 10.4954 8.53364 10.381 8.64311C10.2667 8.75258 10.1989 8.90197 10.192 9.06014V12.1199ZM6.78009 13.3525C6.78703 13.5107 6.85475 13.6601 6.96913 13.7695C7.08351 13.879 7.23572 13.9401 7.39405 13.9401C7.55237 13.9401 7.70458 13.879 7.81896 13.7695C7.93334 13.6601 8.00106 13.5107 8.008 13.3525V6.73314C8.00106 6.57497 7.93334 6.42558 7.81896 6.31611C7.70458 6.20664 7.55237 6.14554 7.39405 6.14554C7.23572 6.14554 7.08351 6.20664 6.96913 6.31611C6.85475 6.42558 6.78703 6.57497 6.78009 6.73314V13.3525ZM3.39891 12.1199C3.4124 12.2736 3.48299 12.4166 3.59675 12.5208C3.7105 12.625 3.85918 12.6828 4.01345 12.6828C4.16773 12.6828 4.31641 12.625 4.43016 12.5208C4.54392 12.4166 4.61451 12.2736 4.628 12.1199V9.06014C4.62106 8.90197 4.55334 8.75258 4.43896 8.64311C4.32458 8.53364 4.17237 8.47254 4.01405 8.47254C3.85572 8.47254 3.70351 8.53364 3.58913 8.64311C3.47475 8.75258 3.40703 8.90197 3.40009 9.06014V12.1199H3.39891ZM0 12.1199C0.0117699 12.2746 0.0815606 12.4193 0.195402 12.5248C0.309244 12.6303 0.458736 12.6889 0.613955 12.6889C0.769173 12.6889 0.918665 12.6303 1.03251 12.5248C1.14635 12.4193 1.21614 12.2746 1.22791 12.1199V10.7549C1.22097 10.5967 1.15325 10.4473 1.03887 10.3378C0.924492 10.2284 0.772278 10.1673 0.613955 10.1673C0.455632 10.1673 0.303417 10.2284 0.189038 10.3378C0.0746589 10.4473 0.00694125 10.5967 0 10.7549L0 12.1199Z" fill="white"/>
</g>
<defs>
<clipPath id="clip0">
<rect width="26" height="26" fill="white"/>
</clipPath>
</defs>
</svg>
