<svg width="22" height="22" viewBox="0 0 22 22" fill="none" xmlns="http://www.w3.org/2000/svg">
<path d="M2.75 13.0625H11.8044L10.0306 11.2819L11 10.3125L14.4375 13.75L11 17.1875L10.0306 16.2181L11.8044 14.4375H2.75V13.0625Z" fill="white"/>
<path d="M5.5 9.62501V6.87501C5.49948 6.78453 5.51682 6.69484 5.55103 6.61108C5.58525 6.52731 5.63566 6.45113 5.69938 6.38689L10.5119 1.57439C10.5761 1.51067 10.6523 1.46026 10.7361 1.42604C10.8198 1.39183 10.9095 1.37449 11 1.37501H17.875C18.2397 1.37501 18.5894 1.51988 18.8473 1.77774C19.1051 2.0356 19.25 2.38534 19.25 2.75001V19.25C19.25 19.6147 19.1051 19.9644 18.8473 20.2223C18.5894 20.4801 18.2397 20.625 17.875 20.625H6.875C6.51033 20.625 6.16059 20.4801 5.90273 20.2223C5.64487 19.9644 5.5 19.6147 5.5 19.25V17.875H6.875V19.25H17.875V2.75001H12.375V6.87501C12.375 7.23968 12.2301 7.58942 11.9723 7.84728C11.7144 8.10515 11.3647 8.25001 11 8.25001H6.875V9.62501H5.5ZM11 6.87501V3.03189L7.15687 6.87501H11Z" fill="white"/>
</svg>
