<svg width="18" height="16" viewBox="0 0 18 16" fill="none" xmlns="http://www.w3.org/2000/svg">
<path d="M9 0.5C4.03725 0.5 1.05077e-06 4.53725 1.05077e-06 9.5C-0.00101069 11.5885 0.728631 13.6116 2.0625 15.2188L2.27325 15.5H15.7275L15.9383 15.2188C17.2719 13.6115 18.0012 11.5885 18 9.5C18 4.53725 13.9628 0.5 9 0.5ZM9 2C13.1513 2 16.5 5.34875 16.5 9.5C16.5 11.1995 15.9053 12.743 14.9528 14H3.04725C2.09475 12.743 1.5 11.1995 1.5 9.5C1.5 5.34875 4.84875 2 9 2ZM9 2.75C8.5875 2.75 8.25 3.0875 8.25 3.5C8.25 3.9125 8.5875 4.25 9 4.25C9.4125 4.25 9.75 3.9125 9.75 3.5C9.75 3.0875 9.4125 2.75 9 2.75ZM6 3.54725C5.5875 3.54725 5.25 3.884 5.25 4.29725C5.25 4.70975 5.5875 5.04725 6 5.04725C6.4125 5.04725 6.75 4.70975 6.75 4.29725C6.75 3.884 6.4125 3.54725 6 3.54725ZM12 3.54725C11.5875 3.54725 11.25 3.884 11.25 4.29725C11.25 4.70975 11.5875 5.04725 12 5.04725C12.4125 5.04725 12.75 4.70975 12.75 4.29725C12.75 3.884 12.4125 3.54725 12 3.54725ZM3.7965 5.75C3.384 5.75 3.0465 6.0875 3.0465 6.5C3.0465 6.9125 3.384 7.25 3.7965 7.25C4.20975 7.25 4.5465 6.9125 4.5465 6.5C4.5465 6.0875 4.20975 5.75 3.7965 5.75ZM13.992 5.77325L9.75 8.21075C9.52315 8.07514 9.26428 8.0024 9 8C8.60218 8 8.22065 8.15804 7.93934 8.43934C7.65804 8.72064 7.5 9.10218 7.5 9.5C7.5 9.89782 7.65804 10.2794 7.93934 10.5607C8.22065 10.842 8.60218 11 9 11C9.39383 11 9.77188 10.8452 10.0525 10.5689C10.3332 10.2926 10.4939 9.91703 10.5 9.52325V9.5L14.742 7.08575L13.992 5.77325ZM3 8.75C2.5875 8.75 2.25 9.0875 2.25 9.5C2.25 9.9125 2.5875 10.25 3 10.25C3.4125 10.25 3.75 9.9125 3.75 9.5C3.75 9.0875 3.4125 8.75 3 8.75ZM15 8.75C14.5875 8.75 14.25 9.0875 14.25 9.5C14.25 9.9125 14.5875 10.25 15 10.25C15.4125 10.25 15.75 9.9125 15.75 9.5C15.75 9.0875 15.4125 8.75 15 8.75ZM3.7965 11.75C3.384 11.75 3.0465 12.0875 3.0465 12.5C3.0465 12.9125 3.384 13.25 3.7965 13.25C4.20975 13.25 4.5465 12.9125 4.5465 12.5C4.5465 12.0875 4.20975 11.75 3.7965 11.75ZM14.2035 11.75C13.7903 11.75 13.4535 12.0875 13.4535 12.5C13.4535 12.9125 13.7903 13.25 14.2035 13.25C14.616 13.25 14.9535 12.9125 14.9535 12.5C14.9535 12.0875 14.616 11.75 14.2035 11.75Z" fill="white"/>
</svg>
