<svg width="18" height="18" viewBox="0 0 18 18" fill="none" xmlns="http://www.w3.org/2000/svg">
<path d="M12.8737 12.1792L13.8182 11.2347C13.9657 11.0871 14.2225 11.1904 14.2225 11.4029V15.6944C14.2225 16.4765 13.5879 17.1111 12.8058 17.1111H2.4167C1.63456 17.1111 1 16.4765 1 15.6944V5.30523C1 4.5231 1.63456 3.88854 2.4167 3.88854H10.4889C10.6985 3.88854 10.8047 4.14236 10.6572 4.29289L9.71269 5.23735C9.66842 5.28162 9.60939 5.30523 9.54446 5.30523H2.4167V15.6944H12.8058V12.3445C12.8058 12.2825 12.8294 12.2234 12.8737 12.1792ZM17.4957 6.22314L9.74515 13.9737L7.07704 14.2688C6.30376 14.3544 5.64559 13.7021 5.73118 12.9229L6.02632 10.2548L13.7768 2.5043C14.4527 1.82842 15.5448 1.82842 16.2177 2.5043L17.4927 3.77933C18.1686 4.45522 18.1686 5.55021 17.4957 6.22314ZM14.5796 7.13514L12.8648 5.42034L7.38104 10.9071L7.16558 12.8344L9.09288 12.6189L14.5796 7.13514ZM16.4922 4.78283L15.2171 3.5078C15.0961 3.38679 14.8984 3.38679 14.7803 3.5078L13.8683 4.4198L15.5831 6.13459L16.4951 5.22259C16.6132 5.09863 16.6132 4.90384 16.4922 4.78283Z" fill="#4F4F4F"/>
</svg>
