<svg width="20" height="20" viewBox="0 0 20 20" fill="none" xmlns="http://www.w3.org/2000/svg">
<g opacity="0.6">
<path d="M4.69696 5H15.303V6.11111H4.69696V5Z" fill="white"/>
<path d="M4.69696 9.44444H15.303V10.5555H4.69696V9.44444Z" fill="white"/>
<path d="M17.7273 2.77777H2.17172C1.87703 2.77777 1.59442 2.89483 1.38604 3.10321C1.17767 3.31158 1.06061 3.5942 1.06061 3.88888V16.1111C1.06061 16.4058 1.17767 16.6884 1.38604 16.8968C1.59442 17.1052 1.87703 17.2222 2.17172 17.2222H17.7273C18.022 17.2222 18.3046 17.1052 18.513 16.8968C18.7213 16.6884 18.8384 16.4058 18.8384 16.1111V3.88888C18.8384 3.5942 18.7213 3.31158 18.513 3.10321C18.3046 2.89483 18.022 2.77777 17.7273 2.77777ZM2.17172 3.88888H17.7273V7.22222H2.17172V3.88888ZM2.17172 8.33333H17.7273V11.6667H2.17172V8.33333ZM2.17172 16.1111V12.7778H17.7273V16.1111H2.17172Z" fill="white"/>
<path d="M4.69696 13.8889H15.303V15H4.69696V13.8889Z" fill="white"/>
</g>
</svg>
