<svg width="18" height="18" viewBox="0 0 18 18" fill="none" xmlns="http://www.w3.org/2000/svg">
<g clip-path="url(#clip0)">
<path d="M8.875 4.63636C10.3794 4.63136 11.8547 5.051 13.1313 5.84705C14.4078 6.64309 15.4339 7.78322 16.0914 9.13636C14.7414 11.8936 11.9841 13.6364 8.875 13.6364C5.76591 13.6364 3.00864 11.8936 1.65864 9.13636C2.31614 7.78322 3.34215 6.64309 4.61872 5.84705C5.89528 5.051 7.37058 4.63136 8.875 4.63636ZM8.875 3C4.78409 3 1.29045 5.54455 -0.125 9.13636C1.29045 12.7282 4.78409 15.2727 8.875 15.2727C12.9659 15.2727 16.4595 12.7282 17.875 9.13636C16.4595 5.54455 12.9659 3 8.875 3ZM8.875 7.09091C9.41749 7.09091 9.93776 7.30641 10.3214 7.69001C10.705 8.07361 10.9205 8.59388 10.9205 9.13636C10.9205 9.67885 10.705 10.1991 10.3214 10.5827C9.93776 10.9663 9.41749 11.1818 8.875 11.1818C8.33251 11.1818 7.81224 10.9663 7.42865 10.5827C7.04505 10.1991 6.82955 9.67885 6.82955 9.13636C6.82955 8.59388 7.04505 8.07361 7.42865 7.69001C7.81224 7.30641 8.33251 7.09091 8.875 7.09091ZM8.875 5.45455C6.84591 5.45455 5.19318 7.10727 5.19318 9.13636C5.19318 11.1655 6.84591 12.8182 8.875 12.8182C10.9041 12.8182 12.5568 11.1655 12.5568 9.13636C12.5568 7.10727 10.9041 5.45455 8.875 5.45455Z" fill="#4F4F4F"/>
</g>
<defs>
<clipPath id="clip0">
<rect width="18" height="18" fill="white"/>
</clipPath>
</defs>
</svg>
