<svg width="18" height="18" viewBox="0 0 18 18" fill="none" xmlns="http://www.w3.org/2000/svg">
<path d="M15.0223 5.07305L11.2395 1.29023C11.134 1.18477 10.9916 1.125 10.8422 1.125H3.375C3.06387 1.125 2.8125 1.37637 2.8125 1.6875V16.3125C2.8125 16.6236 3.06387 16.875 3.375 16.875H14.625C14.9361 16.875 15.1875 16.6236 15.1875 16.3125V5.47207C15.1875 5.32266 15.1277 5.17852 15.0223 5.07305ZM13.8902 5.73047H10.582V2.42227L13.8902 5.73047ZM13.9219 15.6094H4.07812V2.39062H9.38672V6.1875C9.38672 6.3833 9.4645 6.57109 9.60296 6.70954C9.74141 6.848 9.9292 6.92578 10.125 6.92578H13.9219V15.6094ZM9.03691 10.1971L7.95059 8.39707C7.91191 8.33379 7.84336 8.29512 7.76953 8.29512H7.09453C7.0541 8.29512 7.01543 8.30566 6.98203 8.32852C6.88359 8.39004 6.85371 8.52012 6.91699 8.62031L8.36367 10.9125L6.89766 13.2469C6.87774 13.2789 6.86673 13.3156 6.86579 13.3533C6.86484 13.391 6.87398 13.4283 6.89226 13.4613C6.91054 13.4943 6.9373 13.5218 6.96977 13.5409C7.00224 13.5601 7.03925 13.5702 7.07695 13.5703H7.6834C7.75723 13.5703 7.82402 13.5316 7.8627 13.4701L8.96484 11.6859L10.06 13.4684C10.0986 13.5316 10.1672 13.5686 10.2393 13.5686H10.8984C10.9389 13.5686 10.9775 13.5562 11.0127 13.5352C11.1111 13.4719 11.1393 13.3418 11.076 13.2434L9.59941 10.9512L11.0988 8.62207C11.1191 8.59015 11.1305 8.55337 11.1318 8.51556C11.133 8.47775 11.1241 8.4403 11.106 8.4071C11.0879 8.3739 11.0612 8.34616 11.0287 8.32677C10.9962 8.30739 10.9591 8.29706 10.9213 8.29688H10.2937C10.2199 8.29688 10.1514 8.33555 10.1127 8.39883L9.03691 10.1971Z" fill="#4F4F4F"/>
</svg>
