<svg width="14" height="13" viewBox="0 0 14 13" fill="none" xmlns="http://www.w3.org/2000/svg">
<path fill-rule="evenodd" clip-rule="evenodd" d="M13.125 5.24992H2.74312L5.922 1.43492C6.23175 1.06392 6.181 0.511795 5.81 0.20292C5.43812 -0.10683 4.88687 -0.0560795 4.578 0.31492L0.203 5.56492C0.168875 5.60605 0.151375 5.65417 0.126 5.69967C0.105 5.73642 0.079625 5.76792 0.063875 5.80817C0.0245 5.9088 0.000875 6.01467 0.000875 6.12142C0.000875 6.1223 0 6.12405 0 6.12492C0 6.1258 0.000875 6.12755 0.000875 6.12842C0.000875 6.23517 0.0245 6.34105 0.063875 6.44167C0.079625 6.48192 0.105 6.51342 0.126 6.55017C0.151375 6.59567 0.168875 6.6438 0.203 6.68492L4.578 11.9349C4.75125 12.1423 4.99975 12.2499 5.25 12.2499C5.44775 12.2499 5.64637 12.1834 5.81 12.0469C6.181 11.738 6.23175 11.1859 5.922 10.8149L2.74312 6.99992H13.125C13.608 6.99992 14 6.60792 14 6.12492C14 5.64192 13.608 5.24992 13.125 5.24992Z" fill="#fff"/>
</svg>
