<svg width="18" height="17" viewBox="0 0 18 17" fill="none" xmlns="http://www.w3.org/2000/svg">
<path opacity="0.6" d="M4.94999 3.0375L2.92499 1.0125H1.91249V2.025L3.93749 4.05L4.94999 3.0375ZM5.96249 0H6.97499V2.025H5.96249V0ZM10.0125 5.06249H12.0375V6.07499H10.0125V5.06249ZM11.025 2.025V1.0125H10.0125L7.98749 3.0375L8.99999 4.05L11.025 2.025ZM0.899994 5.06249H2.92499V6.07499H0.899994V5.06249ZM5.96249 9.11249H6.97499V11.1375H5.96249V9.11249ZM1.91249 9.11249V10.125H2.92499L4.94999 8.09999L3.93749 7.08749L1.91249 9.11249ZM16.8782 13.9532L6.81501 3.89002C6.67233 3.748 6.4792 3.66827 6.27788 3.66827C6.07656 3.66827 5.88344 3.748 5.74075 3.89002L4.79002 4.84076C4.64799 4.98344 4.56826 5.17657 4.56826 5.37789C4.56826 5.57921 4.64799 5.77233 4.79002 5.91502L14.8532 15.9782C14.9959 16.1203 15.1891 16.2 15.3904 16.2C15.5917 16.2 15.7848 16.1203 15.9275 15.9782L16.8782 15.0275C17.0203 14.8848 17.1 14.6917 17.1 14.4904C17.1 14.2891 17.0203 14.0959 16.8782 13.9532ZM8.49374 8.60624L5.45624 5.56874L6.46874 4.55625L9.50624 7.59374L8.49374 8.60624Z" fill="white"/>
</svg>
