<svg width="12" height="12" viewBox="0 0 12 12" fill="none" xmlns="http://www.w3.org/2000/svg">
<path d="M0 12V6.75003H5.25L2.83725 9.16503C3.24935 9.58644 3.74128 9.92153 4.28431 10.1507C4.82733 10.38 5.41058 10.4987 6 10.5C6.92944 10.4987 7.83566 10.2095 8.59415 9.67235C9.35264 9.13517 9.92619 8.37632 10.236 7.50003H10.2495C10.335 7.25628 10.4002 7.00503 10.4437 6.75003H11.9527C11.7701 8.19994 11.0645 9.53334 9.96851 10.5C8.87249 11.4666 7.46137 12 6 12H5.9925C5.20486 12.0024 4.42458 11.8485 3.69682 11.5472C2.96907 11.246 2.30829 10.8034 1.75275 10.245L0 12ZM1.5555 5.25003H0.0464998C0.229107 3.80063 0.934231 2.46764 2.02962 1.50108C3.125 0.534527 4.53539 0.000806681 5.99625 2.98566e-05H6C6.78777 -0.0024646 7.56821 0.151369 8.2961 0.452622C9.024 0.753874 9.68489 1.19656 10.2405 1.75503L12 2.98566e-05V5.25003H6.75L9.1665 2.83503C8.75398 2.41314 8.26145 2.07776 7.71774 1.84853C7.17403 1.6193 6.59006 1.50082 6 1.50003C5.07056 1.5014 4.16434 1.79054 3.40585 2.32771C2.64736 2.86488 2.07381 3.62374 1.764 4.50003H1.7505C1.66425 4.74378 1.599 4.99503 1.55625 5.25003H1.5555Z" fill="#4F4F4F"/>
</svg>
