<svg width="18" height="18" viewBox="0 0 18 18" fill="none" xmlns="http://www.w3.org/2000/svg">
<path d="M14.4563 5.23127L10.5188 1.29377C10.4693 1.2388 10.4084 1.19525 10.3404 1.16611C10.2724 1.13698 10.1989 1.12295 10.125 1.12502H4.5C4.20191 1.12591 3.91627 1.24472 3.70549 1.4555C3.4947 1.66629 3.37589 1.95192 3.375 2.25002V15.75C3.37589 16.0481 3.4947 16.3337 3.70549 16.5445C3.91627 16.7553 4.20191 16.8741 4.5 16.875H13.5C13.7981 16.8741 14.0837 16.7553 14.2945 16.5445C14.5053 16.3337 14.6241 16.0481 14.625 15.75V5.62502C14.6271 5.55108 14.613 5.47758 14.5839 5.40959C14.5548 5.34161 14.5112 5.28076 14.4563 5.23127ZM10.125 2.47502L13.275 5.62502H10.125V2.47502ZM13.5 15.75H4.5V2.25002H9V5.62502C9.00089 5.92311 9.1197 6.20874 9.33049 6.41953C9.54127 6.63031 9.82691 6.74913 10.125 6.75002H13.5V15.75Z" fill="#4F4F4F"/>
<path d="M6 14V11.375H8.62499L7.41862 12.5825C7.62467 12.7932 7.87063 12.9607 8.14214 13.0753C8.41366 13.19 8.70528 13.2493 8.99999 13.25C9.4647 13.2493 9.91781 13.1047 10.2971 12.8362C10.6763 12.5676 10.9631 12.1881 11.118 11.75H11.1247C11.1675 11.6281 11.2001 11.5025 11.2219 11.375H11.9763C11.885 12.1 11.5322 12.7666 10.9842 13.25C10.4362 13.7333 9.73067 14 8.99999 14H8.99624C8.60242 14.0012 8.21228 13.9242 7.8484 13.7736C7.48453 13.623 7.15414 13.4017 6.87637 13.1225L6 14ZM6.77775 10.625H6.02325C6.11455 9.90031 6.46711 9.23382 7.0148 8.75054C7.56249 8.26726 8.26769 8.0004 8.99811 8.00001H8.99999C9.39387 7.99877 9.78409 8.07568 10.148 8.22631C10.512 8.37694 10.8424 8.59828 11.1202 8.87751L12 8.00001V10.625H9.37498L10.5832 9.41751C10.377 9.20656 10.1307 9.03888 9.85885 8.92426C9.587 8.80965 9.29501 8.75041 8.99999 8.75001C8.53527 8.7507 8.08216 8.89526 7.70292 9.16385C7.32368 9.43244 7.0369 9.81186 6.882 10.25H6.87525C6.83212 10.3719 6.7995 10.4975 6.77812 10.625H6.77775Z" fill="#4F4F4F"/>
</svg>
