<svg width="16" height="21" viewBox="0 0 16 21" fill="none" xmlns="http://www.w3.org/2000/svg">
<path d="M7.78421 11.2611C8.41481 11.2601 9.03594 11.1075 9.59523 10.8163C10.1545 10.525 10.6356 10.1035 10.9979 9.58737C11.0042 9.57895 11.0137 9.57579 11.02 9.56737L11.0274 9.55158C11.5254 8.82591 11.766 7.9543 11.7108 7.07588C11.6555 6.19746 11.3075 5.36288 10.7224 4.70536C10.1373 4.04784 9.34883 3.6053 8.48278 3.44836C7.61672 3.29143 6.72306 3.42917 5.94445 3.83957C5.16584 4.24998 4.54716 4.90941 4.18718 5.71258C3.8272 6.51575 3.74667 7.41637 3.95845 8.27067C4.17023 9.12497 4.6621 9.88369 5.35555 10.4257C6.049 10.9678 6.90405 11.2618 7.78421 11.2611ZM7.25789 4.48211V7.31895C7.25803 7.4038 7.27869 7.48736 7.31809 7.56251C7.3575 7.63765 7.41449 7.70216 7.48421 7.75053L9.81474 9.37053C9.49388 9.68919 9.10265 9.92804 8.67258 10.0678C8.24251 10.2076 7.78562 10.2444 7.33871 10.1753C6.89181 10.1062 6.46739 9.93305 6.09965 9.66986C5.73191 9.40668 5.43113 9.06079 5.22154 8.66008C5.01195 8.25936 4.89941 7.81502 4.89299 7.36285C4.88657 6.91068 4.98645 6.46332 5.18458 6.05682C5.38271 5.65031 5.67355 5.29603 6.03368 5.02251C6.3938 4.74899 6.81313 4.56389 7.25789 4.48211ZM3.19895 13.5242C3.19895 13.3846 3.2544 13.2508 3.3531 13.152C3.4518 13.0533 3.58568 12.9979 3.72526 12.9979H7.78421C7.9238 12.9979 8.05767 13.0533 8.15637 13.152C8.25508 13.2508 8.31053 13.3846 8.31053 13.5242C8.31053 13.6638 8.25508 13.7977 8.15637 13.8964C8.05767 13.9951 7.9238 14.0505 7.78421 14.0505H3.72526C3.65615 14.0505 3.58771 14.0369 3.52385 14.0105C3.46 13.984 3.40197 13.9452 3.3531 13.8964C3.30423 13.8475 3.26546 13.7895 3.23901 13.7256C3.21256 13.6618 3.19895 13.5933 3.19895 13.5242ZM12.3695 16.4189C12.3695 16.5585 12.314 16.6924 12.2153 16.7911C12.1166 16.8898 11.9827 16.9453 11.8432 16.9453H3.72526C3.58568 16.9453 3.4518 16.8898 3.3531 16.7911C3.2544 16.6924 3.19895 16.5585 3.19895 16.4189C3.19895 16.2794 3.2544 16.1455 3.3531 16.0468C3.4518 15.9481 3.58568 15.8926 3.72526 15.8926H11.8432C11.982 15.8926 12.1153 15.9475 12.2138 16.0453C12.3124 16.1431 12.3684 16.2759 12.3695 16.4147V16.4189ZM15.4589 3.96211C15.4324 3.8976 15.3934 3.83895 15.3442 3.78947L12.2211 0.656842C12.1725 0.606795 12.1141 0.567368 12.0495 0.541053C11.9855 0.514174 11.9168 0.500222 11.8474 0.5H1.64737C1.2286 0.5 0.826993 0.666353 0.530883 0.962463C0.234773 1.25857 0.0684204 1.66018 0.0684204 2.07895V18.9211C0.0684204 19.3398 0.234773 19.7414 0.530883 20.0375C0.826993 20.3336 1.2286 20.5 1.64737 20.5H13.9211C14.3398 20.5 14.7414 20.3336 15.0375 20.0375C15.3336 19.7414 15.5 19.3398 15.5 18.9211V4.16316C15.5002 4.09404 15.4862 4.02561 15.4589 3.96211ZM12.3737 2.3L13.7063 3.63684H12.9C12.7604 3.63684 12.6265 3.58139 12.5278 3.48269C12.4291 3.38398 12.3737 3.25011 12.3737 3.11053V2.3ZM13.9211 19.4474H1.64737C1.50778 19.4474 1.37391 19.3919 1.27521 19.2932C1.1765 19.1945 1.12105 19.0606 1.12105 18.9211V2.07895C1.12105 1.93936 1.1765 1.80549 1.27521 1.70679C1.37391 1.60808 1.50778 1.55263 1.64737 1.55263H11.3211V3.11053C11.3211 3.52929 11.4874 3.9309 11.7835 4.22701C12.0796 4.52312 12.4812 4.68947 12.9 4.68947H14.4474V18.9211C14.4474 19.0606 14.3919 19.1945 14.2932 19.2932C14.1945 19.3919 14.0606 19.4474 13.9211 19.4474Z" fill="white"/>
</svg>
