<svg width="12" height="14" viewBox="0 0 12 14" fill="none" xmlns="http://www.w3.org/2000/svg">
<path d="M3.14667 13.52C3.24145 13.6083 3.36681 13.6564 3.49635 13.6541C3.62588 13.6518 3.74947 13.5993 3.84108 13.5077C3.93269 13.4161 3.98516 13.2925 3.98745 13.163C3.98974 13.0335 3.94165 12.9081 3.85333 12.8133L1.70667 10.6667H11.5C11.6326 10.6667 11.7598 10.614 11.8536 10.5202C11.9473 10.4264 12 10.2993 12 10.1667C12 10.034 11.9473 9.90687 11.8536 9.8131C11.7598 9.71933 11.6326 9.66666 11.5 9.66666H1.70667L3.85333 7.51999C3.90246 7.47421 3.94186 7.41901 3.96919 7.35768C3.99652 7.29635 4.01121 7.23014 4.01239 7.163C4.01358 7.09587 4.00123 7.02918 3.97608 6.96692C3.95093 6.90466 3.9135 6.84811 3.86603 6.80063C3.81855 6.75315 3.76199 6.71572 3.69973 6.69057C3.63747 6.66543 3.57079 6.65308 3.50365 6.65426C3.43652 6.65545 3.37031 6.67014 3.30897 6.69747C3.24764 6.7248 3.19244 6.7642 3.14667 6.81332L0.146667 9.81332C0.053033 9.90707 0.000439962 10.0342 0.000439962 10.1667C0.000439962 10.2992 0.053033 10.4262 0.146667 10.52L3.14667 13.52ZM8.85333 7.18666C8.80756 7.23578 8.75236 7.27518 8.69103 7.30251C8.62969 7.32984 8.56348 7.34453 8.49635 7.34572C8.42921 7.3469 8.36253 7.33455 8.30027 7.3094C8.23801 7.28426 8.18145 7.24683 8.13398 7.19935C8.0865 7.15187 8.04907 7.09531 8.02392 7.03305C7.99877 6.9708 7.98642 6.90411 7.98761 6.83697C7.98879 6.76984 8.00348 6.70363 8.03081 6.6423C8.05814 6.58096 8.09754 6.52576 8.14667 6.47999L10.2933 4.33332H0.5C0.367392 4.33332 0.240215 4.28064 0.146447 4.18688C0.0526784 4.09311 0 3.96593 0 3.83332C0 3.70071 0.0526784 3.57354 0.146447 3.47977C0.240215 3.386 0.367392 3.33332 0.5 3.33332H10.2933L8.14667 1.18666C8.05835 1.09187 8.01026 0.966508 8.01255 0.836974C8.01484 0.70744 8.06731 0.58385 8.15892 0.492241C8.25053 0.400633 8.37412 0.348158 8.50365 0.345873C8.63319 0.343587 8.75855 0.391669 8.85333 0.479989L11.8533 3.47999C11.947 3.57374 11.9996 3.70082 11.9996 3.83332C11.9996 3.96582 11.947 4.09291 11.8533 4.18666L8.85333 7.18666Z" fill="#4F4F4F"/>
</svg>
