<svg width="11" height="20" viewBox="0 0 11 20" fill="none" xmlns="http://www.w3.org/2000/svg">
<path d="M8.07529 3.09647C8.07529 2.77283 7.81299 2.51053 7.48935 2.51053L3.09619 2.51053C2.77255 2.51053 2.51025 2.77283 2.51025 3.09647C2.51025 3.42011 2.77255 3.6824 3.09619 3.6824L7.48935 3.6824C7.81299 3.6824 8.07529 3.42011 8.07529 3.09647Z" fill="white"/>
<path d="M7.13404 6.86197C7.13404 5.8468 6.30809 5.02084 5.29293 5.02084C4.27761 5.02084 3.45166 5.8468 3.45166 6.86197C3.45166 7.87729 4.27761 8.70309 5.29293 8.70309C6.30809 8.70309 7.13404 7.87729 7.13404 6.86197ZM4.62353 6.86197C4.62353 6.49301 4.92382 6.19272 5.29293 6.19272C5.66188 6.19272 5.96217 6.49286 5.96217 6.86197C5.96217 7.23108 5.66188 7.53122 5.29293 7.53122C4.92382 7.53122 4.62353 7.23108 4.62353 6.86197Z" fill="white"/>
<path d="M3.45166 10.6276L3.45166 16.9037C3.45166 17.2273 3.71411 17.4896 4.0376 17.4896C4.36124 17.4896 4.62353 17.2273 4.62353 16.9037L4.62353 10.6276C4.62353 10.3039 4.36124 10.0416 4.0376 10.0416C3.71411 10.0416 3.45166 10.3039 3.45166 10.6276Z" fill="white"/>
<path d="M5.96191 16.2761L5.96191 16.9037C5.96191 17.2273 6.22421 17.4896 6.54785 17.4896C6.87134 17.4896 7.13379 17.2273 7.13379 16.9037L7.13379 16.2761C7.13379 15.9525 6.87134 15.6902 6.54785 15.6902C6.22421 15.6902 5.96191 15.9525 5.96191 16.2761Z" fill="white"/>
<path d="M5.96191 13.1381L5.96191 13.7657C5.96191 14.0892 6.22421 14.3516 6.54785 14.3516C6.87134 14.3516 7.13379 14.0892 7.13379 13.7657L7.13379 13.1381C7.13379 12.8145 6.87134 12.5522 6.54785 12.5522C6.22421 12.5522 5.96191 12.8145 5.96191 13.1381Z" fill="white"/>
<path d="M5.96191 10.6277C5.96191 10.782 6.02432 10.9329 6.13373 11.0419C6.24268 11.1513 6.39389 11.2137 6.54785 11.2137C6.70212 11.2137 6.85333 11.1511 6.96228 11.0419C7.07123 10.9329 7.13379 10.7822 7.13379 10.6277C7.13379 10.4735 7.07123 10.3223 6.96228 10.2133C6.85333 10.1044 6.70212 10.0418 6.54785 10.0418C6.39389 10.0418 6.24268 10.1044 6.13373 10.2133C6.02432 10.3223 5.96191 10.4735 5.96191 10.6277Z" fill="white"/>
<path d="M0.144075 0.201111C0.0328382 0.328979 -0.0176684 0.498657 0.00552497 0.666351C0.418275 3.64395 0.627626 6.78421 0.627626 10C0.627626 13.2158 0.418276 16.356 0.00552579 19.3335C-0.0176676 19.5013 0.032839 19.671 0.144076 19.7989C0.255312 19.9266 0.416445 19.9998 0.58597 19.9998L9.99988 20C10.1694 20 10.3305 19.9266 10.4418 19.7989C10.5532 19.671 10.6037 19.5012 10.5803 19.3336C10.1676 16.3559 9.95822 13.2156 9.95822 10.0002C9.95822 6.78451 10.1676 3.64426 10.5803 0.666503C10.584 0.639648 10.5858 0.612793 10.5858 0.58609C10.5858 0.445404 10.5353 0.308532 10.4418 0.201263C10.3305 0.0733943 10.1694 0.000152143 9.99988 0.000152151L0.585969 -2.56136e-08C0.416444 -1.82034e-08 0.255311 0.0733948 0.144075 0.201111ZM9.33078 1.17187C8.96945 4.00314 8.78635 6.96945 8.78635 10C8.78635 13.0307 8.96945 15.9969 9.33078 18.8281L1.25507 18.8281C1.6164 15.997 1.7995 13.0309 1.7995 10C1.7995 6.9693 1.6164 4.00314 1.25507 1.17187L9.33078 1.17187Z" fill="white"/>
</svg>
