<svg width="20" height="19" viewBox="0 0 22 21" fill="none" xmlns="http://www.w3.org/2000/svg">
<path d="M21.9613 9.13902C21.9447 8.96008 21.9236 8.79337 21.907 8.65159C21.886 8.50981 21.8694 8.38074 21.8488 8.28491C21.8195 8.10598 21.7946 8.00575 21.7946 8.00575C21.7946 7.98913 21.7863 7.97642 21.7863 7.95979C21.7863 7.94317 21.778 7.93046 21.7696 7.91384C21.2074 5.65267 20.0037 3.85352 18.363 2.85371C17.1094 2.08761 15.6643 1.84609 14.2944 2.18343L9.54272 3.35777C9.48846 3.36608 9.4469 3.37439 9.38432 3.3871L7.24391 3.92001C6.91488 4.00312 6.50665 4.19086 6.19864 4.40304C5.89063 4.61522 5.60316 4.85283 5.35724 5.12368C5.10741 5.39453 4.89914 5.68592 4.73243 6.00224C4.56571 6.31855 4.46158 6.61874 4.42442 6.91844C4.37846 7.24747 4.4034 7.53494 4.49091 7.78477C4.58233 8.0346 4.72412 8.22625 4.91968 8.38025C5.10693 8.53034 5.34844 8.62177 5.61929 8.66772C5.89014 8.71368 6.18984 8.69706 6.50616 8.62177L7.37249 8.39687C7.55974 8.35923 7.71815 8.38025 7.84722 8.47999C7.97628 8.57581 8.02224 8.7215 7.99731 8.92146C7.96797 9.11702 7.86824 9.29645 7.70592 9.47099C7.53921 9.64601 7.35196 9.75846 7.16471 9.80833L4.4826 10.5163C4.35353 10.5456 4.23277 10.6077 4.12032 10.6747C3.06674 11.2452 3.17479 12.4279 3.17479 12.4279L6.43136 11.5615L6.9271 11.4325C7.25613 11.3366 7.58076 11.1909 7.88926 10.991C8.10144 10.8575 8.29309 10.7035 8.47643 10.5329L8.13909 12.9026L7.73917 15.6595C7.73917 15.6595 9.23423 15.5554 9.55935 13.9395C9.56766 13.9019 9.57597 13.8647 9.57597 13.8271C9.6053 13.7523 9.62193 13.677 9.63415 13.6022L9.70064 13.2272L11.0456 12.8816C11.4577 12.7774 11.866 12.5941 12.2576 12.3487C12.3035 12.3193 12.3407 12.2944 12.3783 12.2655C12.37 12.2949 12.3617 12.3237 12.3617 12.357C12.3158 12.686 12.3407 12.9735 12.4282 13.2233C12.524 13.4731 12.6614 13.6648 12.857 13.8188C13.0525 13.9689 13.2857 14.0603 13.5566 14.1063C13.8274 14.1522 14.1271 14.1356 14.4435 14.0603L15.3098 13.8354C15.497 13.7978 15.6638 13.8188 15.7845 13.9185C15.9136 14.0143 15.9595 14.16 15.9346 14.36C15.9053 14.5556 15.8055 14.735 15.6432 14.9095C15.4765 15.0845 15.2893 15.197 15.102 15.2469L11.9579 16.0213H11.9452L7.31431 17.1497C6.33162 17.3912 5.3152 17.2162 4.399 16.6622C3.09119 15.8668 2.12072 14.3756 1.66262 12.4767V12.4684C1.65431 12.4308 1.63329 12.3477 1.60444 12.2186C1.58782 12.1355 1.56679 12.0397 1.53795 11.9272C1.51693 11.8065 1.48368 11.673 1.46315 11.5151C1.41719 11.1988 1.37172 10.8155 1.35901 10.3779C1.34239 9.93642 1.35901 9.43236 1.4255 8.89115C1.49199 8.34994 1.61275 7.76277 1.80049 7.16289C1.98774 6.563 2.25028 5.94699 2.59593 5.34271C2.94158 4.73892 3.35373 4.15566 3.84947 3.61444L3.9409 3.51031L3.95752 3.49369C3.9409 3.51031 3.95752 3.49369 3.95752 3.49369L3.96583 3.48537L3.98685 3.46435L4.04112 3.41008L4.24499 3.20621C4.31148 3.13141 4.37846 3.07714 4.44887 3.01065L4.65274 2.8234C4.78621 2.70264 4.94021 2.58189 5.0815 2.46113C5.2316 2.34868 5.37289 2.23623 5.53129 2.1321C6.1478 1.70333 6.80977 1.34937 7.50107 1.0702C8.19238 0.791042 8.90862 0.620415 9.61264 0.507968C9.70406 0.491345 9.78766 0.486945 9.87518 0.470323C9.92113 0.462011 9.971 0.4537 10.017 0.4537C10.1377 0.432677 10.2208 0.32463 10.2042 0.203872C10.1959 0.0997359 10.1084 0.0166226 10.0086 0C9.95047 0 9.88789 0.00831141 9.82971 0.00831141C9.73828 0.0166227 9.64246 0.0249341 9.55055 0.0293342C8.80497 0.0958247 8.03887 0.241517 7.28938 0.487434C6.53549 0.737263 5.80263 1.0746 5.11133 1.48675C4.9363 1.59088 4.77398 1.70333 4.59896 1.81578C4.43224 1.93654 4.27433 2.04898 4.11152 2.17805L3.87001 2.37361C3.78689 2.4401 3.7116 2.50268 3.6368 2.56917L3.46177 2.75642L3.40751 2.80238L3.37817 2.83171L3.34053 2.86105L3.23639 2.96518C2.66584 3.52302 2.16179 4.13952 1.74133 4.78536C1.32088 5.4224 0.987447 6.10148 0.733708 6.75514C0.479479 7.41711 0.29663 8.06295 0.184183 8.67066C0.0717361 9.27885 0.0174681 9.8494 0.00524558 10.353C-0.011377 10.857 0.0135568 11.2985 0.0512022 11.6691C0.0678248 11.848 0.0888476 12.0147 0.10547 12.1565C0.126493 12.2983 0.143116 12.4274 0.163649 12.5188C0.192983 12.6977 0.217917 12.798 0.217917 12.798C0.217917 12.8146 0.226229 12.8273 0.226229 12.8439C0.226229 12.8605 0.23454 12.8732 0.242851 12.8816C0.805087 15.1427 2.00876 16.9419 3.64951 17.9417C4.53638 18.4829 5.51516 18.7621 6.49003 18.7621C6.89386 18.7621 7.3104 18.7161 7.71423 18.6203L11.6455 17.6664C11.6831 17.6581 11.7203 17.6498 11.7662 17.6454L13.1112 17.3164L13.5986 17.1956C13.6153 17.1956 13.6197 17.1873 13.6363 17.1873L14.9148 16.871C15.2438 16.7752 15.5684 16.6295 15.8769 16.4295C16.1849 16.2256 16.4641 16.0007 16.71 15.7299C16.9598 15.4674 17.1598 15.1721 17.3265 14.8636C17.4932 14.5472 17.5974 14.2387 17.6428 13.9224C17.6888 13.5978 17.6639 13.3142 17.5763 13.0644C17.4849 12.8146 17.3348 12.6146 17.1476 12.4562C16.952 12.2978 16.7188 12.202 16.448 12.1565C16.1771 12.1106 15.8901 12.1272 15.5816 12.2108L14.7319 12.4274C14.528 12.4816 14.3696 12.4567 14.2489 12.3609C14.1281 12.2651 14.0739 12.1194 14.0988 11.9404C14.1364 11.7282 14.2323 11.5366 14.3902 11.3616C14.5486 11.1865 14.7275 11.0702 14.9231 11.0242L17.8633 10.2703C17.9841 10.241 18.0965 10.1872 18.2007 10.1286C19.267 9.57072 19.1711 8.37536 19.1711 8.37536L18.2007 8.62519C18.163 8.6335 18.1342 8.64181 18.0965 8.64621L15.1563 9.4001C14.9065 9.45828 14.6688 9.56681 14.4273 9.69148C14.4816 9.51645 14.5188 9.34583 14.5398 9.1708C14.598 8.77088 14.5691 8.413 14.465 8.0962C14.3608 7.77988 14.1858 7.52565 13.9443 7.33009C13.7028 7.13453 13.4197 7.00546 13.0657 6.9551C12.7201 6.89692 12.3368 6.92577 11.9163 7.0299L9.72997 7.59214C9.69233 7.60045 9.64686 7.61316 9.60921 7.62979C9.60921 7.62979 9.60921 7.62979 9.60921 7.62148C9.51779 7.37165 9.37601 7.17169 9.18045 7.01328C8.98489 6.85488 8.75168 6.75905 8.48083 6.71359C8.20998 6.66763 7.923 6.68425 7.6145 6.76785L6.76479 6.98444C6.56092 7.03871 6.40251 7.01377 6.28175 6.91795C6.161 6.82212 6.10673 6.68474 6.13166 6.49749C6.16931 6.28531 6.26513 6.09366 6.42305 5.91863C6.58145 5.74361 6.76039 5.62725 6.95595 5.58129L8.6759 5.13981L14.6522 3.6824C15.6349 3.44088 16.6513 3.61591 17.5675 4.16984C18.8754 4.96528 19.8458 6.45642 20.3039 8.35532C20.3039 8.35532 20.3039 8.35532 20.3039 8.36363C20.3122 8.40127 20.3333 8.48438 20.3621 8.61345C20.3787 8.69657 20.3997 8.79239 20.4286 8.91315C20.4496 9.03391 20.4829 9.17569 20.5034 9.32529C20.5493 9.64161 20.5948 10.0249 20.6075 10.4664C20.6241 10.9079 20.6075 11.4119 20.541 11.9531C20.4745 12.4944 20.3538 13.0815 20.1577 13.6897C19.9622 14.2896 19.6996 14.9056 19.354 15.5182C19.0083 16.1181 18.5879 16.7136 18.0921 17.2548L18.0007 17.3506L17.9049 17.4547C17.8384 17.5295 17.7714 17.5882 17.7093 17.6503C17.5803 17.7794 17.4385 17.9045 17.3055 18.0253C17.018 18.2668 16.7266 18.4917 16.4103 18.7C15.7855 19.1204 15.1108 19.4661 14.4112 19.7286C13.7116 19.9995 12.9993 20.1867 12.2913 20.2992C12.1124 20.3285 11.9374 20.3534 11.7584 20.374C11.6626 20.4033 11.5917 20.5074 11.6 20.6155C11.6083 20.7235 11.6914 20.8027 11.7873 20.8194C11.9745 20.811 12.1623 20.7983 12.3495 20.7734C13.0951 20.6903 13.8529 20.5402 14.6107 20.307C15.3646 20.0655 16.1057 19.7491 16.8137 19.3365C17.1676 19.1326 17.505 18.9078 17.8296 18.6618C17.988 18.5328 18.1459 18.412 18.3043 18.2785C18.3791 18.212 18.4627 18.1451 18.5292 18.0747L18.6333 17.9788L18.7458 17.8664C19.3246 17.3086 19.8287 16.6921 20.2492 16.0462C20.6696 15.4009 21.007 14.7301 21.2651 14.0681C21.5193 13.4061 21.7022 12.752 21.8146 12.1443C21.9354 11.5361 21.9813 10.9656 21.9936 10.4537C22.0112 9.94278 21.9901 9.4969 21.9613 9.13902ZM10.3167 8.98893L11.6616 8.64328C11.8406 8.59732 12.0156 8.5851 12.174 8.61394C12.3324 8.63497 12.4615 8.69706 12.5739 8.78897C12.678 8.88039 12.7612 8.99284 12.8071 9.13462C12.8531 9.2764 12.8653 9.43432 12.8448 9.61766C12.8237 9.80491 12.7616 9.97993 12.6658 10.1589C12.5744 10.3339 12.4536 10.4962 12.3119 10.6463C12.1701 10.7964 12.0122 10.9338 11.8371 11.0462C11.6621 11.1587 11.4832 11.2335 11.2959 11.2877L9.94216 11.6334L10.3167 8.98893Z" fill="white"/>
</svg>
