<svg width="18" height="21" viewBox="0 0 18 21" fill="none" xmlns="http://www.w3.org/2000/svg">
<path fill-rule="evenodd" clip-rule="evenodd" d="M11.625 10.8477H10.5C10.5 8.44539 10.5 8.04274 10.5 5.64066C10.5 4.86729 10.5 4.09371 10.5 3.32034C10.5 3.01754 10.5557 2.56543 10.4296 2.37112C10.1624 1.95913 8.94264 2.12503 8.28511 2.12503C6.16424 2.12503 4.0427 2.12503 1.92183 2.12503C1.78307 2.24003 1.63214 2.24368 1.57027 2.44144C1.41815 2.62594 1.49996 3.70189 1.49996 4.05862C1.49996 5.54675 1.49996 7.03534 1.49996 8.52347C1.49996 10.8318 1.49996 13.1409 1.49996 15.4493C1.49996 16.1173 1.35388 17.5512 1.74605 17.8047C2.01573 17.9791 2.75222 17.875 3.1523 17.875C4.34751 17.875 3.54303 17.875 4.73824 17.875C5.21865 17.875 5.69917 17.875 6.17965 17.875V19C5.72258 19 5.26555 19 4.80855 19C3.56648 19 4.32406 19 3.08199 19C2.24471 19 1.51915 19.0248 1.04293 18.6836C0.286117 18.1414 0.374922 17.1899 0.374957 15.9063C0.374957 13.9143 0.374957 11.9217 0.374957 9.92972C0.374957 8.12522 0.374957 6.32016 0.374957 4.51566C0.374957 3.7907 0.25423 2.58642 0.480425 2.05472C0.647664 1.66157 0.984179 1.32835 1.35933 1.14065C1.51166 1.09379 1.66403 1.04689 1.81636 1.00003C3.99584 1.00003 6.17595 1.00003 8.35543 1.00003C9.78101 1.00003 10.8203 0.880991 11.3789 1.77347C11.7989 2.4446 11.625 4.59659 11.625 5.71097C11.625 8.08964 11.625 8.46877 11.625 10.8477Z" fill="white"/>
<path d="M12.2069 12.6596V15.6702H16.1876V12L12.2069 12.6596ZM12.2069 19.3518L16.1876 20V16.3319H12.2069V19.3518ZM8 15.6691H11.3649V12.7691L8 13.3266V15.6691ZM8 18.6953L11.3649 19.2435V16.3319H8V18.6953Z" fill="white"/>
<rect x="3" y="4" width="6" height="1" fill="white"/>
<rect x="3" y="7" width="6" height="1" fill="white"/>
<rect x="3" y="10" width="6" height="1" fill="white"/>
</svg>
